<svg xmlns="http://www.w3.org/2000/svg" xmlns:xlink="http://www.w3.org/1999/xlink" width="497.659" height="515.17" viewBox="0 0 497.659 515.17">
  <defs>
    <style>
      .cls-1 {
        fill: #ccc;
      }

      .cls-2 {
        fill: #f2f7ff;
      }

      .cls-3 {
        fill: #ff4d8c;
      }

      .cls-4 {
        fill: #492c6f;
      }

      .cls-5 {
        fill: #e6e6e6;
      }

      .cls-6 {
        fill: #12033e;
      }

      .cls-7 {
        opacity: 0.06;
      }

      .cls-8 {
        fill: #f2f2f2;
      }

      .cls-9 {
        fill: url(#linear-gradient);
      }

      .cls-10 {
        fill: #fff;
      }

      .cls-11 {
        fill: #2e2c73;
      }

      .cls-12, .cls-13 {
        fill: #66c;
      }

      .cls-12 {
        opacity: 0.4;
      }

      .cls-14 {
        fill: #f8f8ff;
      }

      .cls-15 {
        fill: #c47acc;
      }

      .cls-16 {
        fill: url(#linear-gradient-2);
      }

      .cls-17 {
        fill: #4d48e9;
      }

      .cls-18 {
        fill: #4d48ff;
      }

      .cls-19 {
        fill: url(#linear-gradient-6);
      }

      .cls-20 {
        fill: url(#linear-gradient-7);
      }

      .cls-21 {
        fill: url(#linear-gradient-8);
      }
    </style>
    <linearGradient id="linear-gradient" y1="0.5" x2="1" y2="0.5" gradientUnits="objectBoundingBox">
      <stop offset="0" stop-color="#2e2c73"/>
      <stop offset="1" stop-color="#66c"/>
    </linearGradient>
    <linearGradient id="linear-gradient-2" x1="0" y1="0.5" x2="1" y2="0.5" xlink:href="#linear-gradient"/>
    <linearGradient id="linear-gradient-6" x1="0.236" y1="1.82" x2="0.701" y2="-0.137" gradientUnits="objectBoundingBox">
      <stop offset="0" stop-color="#db9ae5"/>
      <stop offset="1" stop-color="#98509e"/>
    </linearGradient>
    <linearGradient id="linear-gradient-7" x1="0" y1="0.5" x2="1" y2="0.5" xlink:href="#linear-gradient"/>
    <linearGradient id="linear-gradient-8" x1="0" y1="0.5" x2="1" y2="0.5" xlink:href="#linear-gradient"/>
  </defs>
  <g id="employer_branding_ENG_VECTOR" data-name="employer branding ENG VECTOR" transform="translate(-656.968 393.895)">
    <g id="Group_3390" data-name="Group 3390" transform="translate(656.968 -255.925)">
      <path id="Path_6696" data-name="Path 6696" class="cls-1" d="M734.39-360.255c-1.892-3.376-11.108,4.6-11.735,6.16s-.1,7.249-.1,7.249h0c-8.325,14.069-16.469,28.23-24.76,42.311l-7.224,12.109-1.589,2.67c-4.137-1.631-8.287-3.208-12.462-4.663-2.224-.731-4.432-1.547-6.677-2.224l-3.355-1.059-1.686-.513-.837-.273-.416-.13c-.1-.193-.408.328-1.623,3.645l-3.141,10c-.9,3.41-.95,4-.757,3.9l.42.126.833.273,1.669.53,3.359,1.059c2.241.715,4.5,1.32,6.765,1.98,4.507,1.287,9.065,2.434,13.644,3.511l1.379.349a13.675,13.675,0,0,0,2.073.294,14.267,14.267,0,0,0,4.125-.328,13.947,13.947,0,0,0,7.043-4.024,14.563,14.563,0,0,0,2.338-3.322l.736-1.669,1.442-3.208,5.79-12.883c6.778-14.863,13.707-29.651,20.447-44.535l.009,0C741.285-350.358,736.568-356.366,734.39-360.255Z" transform="translate(-589.846 361.08)"/>
      <path id="Path_6697" data-name="Path 6697" class="cls-2" d="M728.55-322.578c-.934.42-3.965,13.064-7.325,28.553-.79,3.452-1.585,7.043-2.333,10.684-2.191,10.078-4.335,20.434-6.063,28.738-2.005,9.612-3.5,16.562-3.78,17.356-.278.7-10.31,18.706-10.31,18.706l-22.814,47.31c-7.463,15.767-15.069,31.538-22.44,47.4l-10.73-4.385c5.924-16.469,11.613-33.035,17.445-49.5l17.125-49.643,4.246-12.408,1.072-3.128c.185-.559.278-.837.374-1.165s.139-.656.232-.98a19.781,19.781,0,0,0,.42-4.011l-.282-8.026-.37-9.519-.281-7.556-.046-.841-.559-19.5-.328-9.843,3.826-18.244c0-.282,2.472-.374,6.252-.42C703.73-323.183,728.55-322.578,728.55-322.578Z" transform="translate(-638.485 483.004)"/>
      <path id="Path_6698" data-name="Path 6698" class="cls-2" d="M709.113-225.341a17.573,17.573,0,0,1-.189,2.195l-.046.513-.046.42-.139.744-.42,3.082L706.5-206.025l-14.182,98.769-9.936-.656-.609-99.791-.046-12.458v-4.293l-.047-.231-.092-.933c-.046-.189-2.472-8.165-5.878-19.27-2.144-7.043-4.667-15.3-7.185-23.655-1.446-4.57-2.846-9.141-4.15-13.53-4.482-14.552-8.4-27.246-9.612-31.211-.282-.841-.42-1.308-.42-1.308l47.541-11.474,3.637,34.805.933,8.909,2.569,24.588.093,10.915v2.939l.046,11.058.046,3.124A35.044,35.044,0,0,1,709.113-225.341Z" transform="translate(-601.363 473.289)"/>
      <path id="Path_6699" data-name="Path 6699" class="cls-3" d="M713.53-224.355a5.176,5.176,0,0,1-.084.841c-.042.084-.042.168-.084.252v.042a.379.379,0,0,1-.042.21c-.252,1.177-4.2,2.9-10.007,4.541-1.64.463-3.448.925-5.339,1.346-.883.21-1.766.378-2.691.589-.967.21-1.976.42-2.985.589-.126.042-.252.042-.378.084-1.093.21-2.229.378-3.364.589-1.262.168-2.565.378-3.868.547-1.219.168-2.438.294-3.658.42-1.219.168-2.439.252-3.658.336q-2.333.189-4.541.252h-.252a74.325,74.325,0,0,1-8.745-.21c-.546-.042-1.093-.126-1.6-.168-1.3-.168-2.565-.378-3.742-.631-.547-.126-1.051-.252-1.556-.379-.21-.042-.379-.084-.547-.126-.5-.168-1.051-.336-1.514-.5-.589-.21-1.135-.42-1.682-.673a12.424,12.424,0,0,1-1.3-.631c-.168-.084-.126-1.261.042-3.2.8-9.292,4.751-36.075,4.962-42.382.841-28.8-11.016-64.624,14.758-81.358.925-.589,1.892-1.177,2.943-1.724.378-.21.715-.42,1.093-.589a7.826,7.826,0,0,1,2.271-1.009,3.128,3.128,0,0,1,1.093-.084c6.012.547,10.3,2.144,13.413,4.247a.041.041,0,0,0,.042.042,19.52,19.52,0,0,1,5.3,5.424c2.4,3.532,3.49,7.19,4.835,9.46,1.093,1.808,2.144,5.76,3.153,11.1h.042a.821.821,0,0,0,.042.294c.967,5.045,1.934,11.31,2.775,18.248v.042c.21,1.43.378,2.943.589,4.415C712.311-267.157,714.455-233.269,713.53-224.355Z" transform="translate(-609.552 404.929)"/>
      <path id="Path_6700" data-name="Path 6700" class="cls-4" d="M661.539-272.347c-1.072,4.654-1.467,6.917.488,11.277l29.659-2.91c1.459-.143,1.337-2.51.059-3.229-7.463-2.283-14.237-3.683-18.235-7.8C668.7-273.541,665.66-271.38,661.539-272.347Z" transform="translate(-581.149 636.916)"/>
      <path id="Path_6701" data-name="Path 6701" class="cls-1" d="M678.445-331.823a5.254,5.254,0,0,1-.883.421,19.686,19.686,0,0,1-2.985.589,17.84,17.84,0,0,1-7.988-.967,25.581,25.581,0,0,1-7.19-3.994,8.083,8.083,0,0,1-.715-.547c-.042,0-.084-.042-.126-.084a6.249,6.249,0,0,0,.462-5,5.474,5.474,0,0,0-.21-.631,11.5,11.5,0,0,0-2.06-3.069s1.682-.883,3.994-1.934c.168-.084.336-.126.5-.21,5.424-2.4,13.665-5.34,12.74-.336a20.2,20.2,0,0,0-.084,7.442,18.155,18.155,0,0,0,1.6,4.793v.084c.084.084.252.378.5.757.168.21.336.5.547.757a.041.041,0,0,0,.042.042A7.209,7.209,0,0,0,678.445-331.823Z" transform="translate(-593.64 395.552)"/>
      <path id="Path_6702" data-name="Path 6702" class="cls-5" d="M691.834-326.3c-.5.126-1.219.252-1.892.379.462,4.961-.042,9.292-2.9,10.638a9.887,9.887,0,0,1-2.144.673,24.149,24.149,0,0,1-9.881-.42,36.491,36.491,0,0,1-4.331-1.177c-.294-.084-.589-.21-.883-.294-1.346-.5-2.607-1.009-3.7-1.514-4.919-4.961-8.577-8.157-10.889-11.184a16.717,16.717,0,0,1-1.051-2.313,31.346,31.346,0,0,1-.673-10.722A16.168,16.168,0,0,1,655-347.7a15.507,15.507,0,0,1,4.878-5.676c5.97-2.1,12.656-3.406,16.145-4.667a4.6,4.6,0,0,1,.715-.21l.126-.042a.041.041,0,0,1,.042.042,23.105,23.105,0,0,1,4.331,4.709,11.3,11.3,0,0,0,1.135.294c.336.084.631.126.925.21a23.212,23.212,0,0,1,.5,3.069c.126,1.471.126,2.565.126,2.565.126.252.252.589.421.925a7.374,7.374,0,0,0,.462,1.009c.21.463.42.967.631,1.472a63.344,63.344,0,0,1,2.523,7.9C691.245-331.846,693.137-326.548,691.834-326.3Z" transform="translate(-604.632 370.012)"/>
      <path id="Path_6703" data-name="Path 6703" class="cls-5" d="M722.11-339.588h-.046c-4.385,15.771-9,31.4-13.438,47.12l-3.776,13.623-.933,3.41-.513,1.724a14.612,14.612,0,0,1-1.774,3.641,13.678,13.678,0,0,1-6.391,5.037c-.047,0-.047.046-.093.046a15.5,15.5,0,0,1-3.919.933,15.888,15.888,0,0,1-2.1,0l-1.4-.139c-4.709-.374-9.376-.795-14.039-1.4-2.334-.282-4.667-.559-6.954-.933l-3.5-.513-1.728-.282-.883-.139-.42-.093a.157.157,0,0,1-.1-.046c-.093-.1-.093-1.026.235-3.919l1.631-10.36c.7-3.452.887-4.011,1.026-3.826l.421.046.887.143,1.728.277,3.5.513c2.333.328,4.617.795,6.95,1.215,4.339.795,8.678,1.724,13.017,2.7l1.169-2.893,5.315-13.059c6.067-15.166,11.945-30.374,18.058-45.535,0,0-1.4-5.554-.98-7.186.37-1.631,8.258-10.919,10.638-7.884C726.449-353.862,732-348.636,722.11-339.588Z" transform="translate(-583.057 371.06)"/>
      <path id="Path_6704" data-name="Path 6704" class="cls-6" d="M687.422-343.436a5.312,5.312,0,0,1-1.766,2.355c-4.162,3.448-14,6.938-14,6.938a14.594,14.594,0,0,1,.8,5.214c-.168,2.775-2.1-3.532-4.961.883-1.64,2.565,1.682,5.886,4.625,7.652.883.547,1.093,1.724.967,3.069a3.3,3.3,0,0,1-.084.589,23.265,23.265,0,0,1-1.471,4.919.647.647,0,0,1-.673.336c-1.051,0-2.985-1.3-3.91-2.144-4.919-4.961-8.577-8.157-10.89-11.184-3.406-4.415-3.952-8.409-1.43-16.566,2.27-7.526,11.815-11.268,16.482-12.53,4.667-1.3,6.853-6.77,11.773-5.592,3.069.757,4.457,5.172,4.835,9.418A26.5,26.5,0,0,1,687.422-343.436Z" transform="translate(-605.476 365.624)"/>
      <path id="Path_6705" data-name="Path 6705" class="cls-4" d="M692.325-271.4l-.408,1.068-30.433,3.25-.521-.992a.959.959,0,0,1,.748-1.4l29.613-3.221A.958.958,0,0,1,692.325-271.4Z" transform="translate(-580.493 644.285)"/>
      <path id="Path_6706" data-name="Path 6706" class="cls-4" d="M645.8-276.962c-2.8,3.872-4.037,5.8-3.931,10.579l28.452,8.855c1.4.433,2.207-1.8,1.312-2.956-5.987-5-11.684-8.926-13.77-14.27C652.859-275.276,649.222-274.469,645.8-276.962Z" transform="translate(-641.348 630.642)"/>
      <path id="Path_6707" data-name="Path 6707" class="cls-4" d="M671.928-264.481l-.791.828-29.3-8.842-.092-1.118a.957.957,0,0,1,1.232-1l28.536,8.548A.958.958,0,0,1,671.928-264.481Z" transform="translate(-641.74 638.044)"/>
      <path id="Path_6708" data-name="Path 6708" class="cls-7" d="M699.337-252.9c-.046.189-.046.374-.093.513-.282,1.169-4.2,2.893-10.032,4.528-2.8-9.1-5.273-22.162-5.226-23.327.189-4.062,2.149-11.058-1.724-15.91-3.919-4.9-12.786-19.644-13.577-20.249-.841-.559-2.38-11.243-3.734-13.017s-6.437-9.658-6.437-9.658l-2.333-8.211a42.614,42.614,0,0,0,16.326,7.375.157.157,0,0,0,.1.046l.42.093.883.139,1.728.282,3.5.513c2.287.374,4.621.652,6.954.933,2.842.374,5.643.652,8.489.934.185,1.446.374,2.939.559,4.432C698.358-295.631,700.5-260.312,699.337-252.9Z" transform="translate(-595.46 434.315)"/>
      <path id="Path_6709" data-name="Path 6709" class="cls-7" d="M713.562-308.592c-2.144,3.031-5.273,6.53-8.35,6.626-5.5.185-14.417.37-15.4,1.539a2.751,2.751,0,0,1-.933.559c-2.33,1.118-8.443,3.359-13.249,5.083-3.313,1.169-6.017,2.149-6.437,2.334-1.169.559-10.873,3.5-14.371,1.728a13.247,13.247,0,0,0-2.144-.795l-.559-19.5c4.852,2.237,11.849,2.939,19.362,2.7a131.017,131.017,0,0,0,19.732-2.237c4.062-.748,7.838-1.635,11.012-2.518,5.832-1.636,9.75-3.359,10.032-4.528a.588.588,0,0,0,.046-.277l.324.374Z" transform="translate(-608.474 499.53)"/>
      <path id="Path_6710" data-name="Path 6710" class="cls-7" d="M660.261-330.023c3.49,5.508,8.7,9.881,12.319,12.908.168.168.294.252.42.378,2.271,1.934,2.435,3.322,2.313,4.121-.084.42-.589,3.742-1.43,4.625a12.079,12.079,0,0,1-2.649,2.144,8.173,8.173,0,0,1-3.658,1.177c.925-.589,1.892-1.177,2.943-1.724-.042,0-.084-.042-.126-.084a6.249,6.249,0,0,0,.462-5c-1.051,0-2.985-1.3-3.91-2.144-4.919-4.961-8.577-8.157-10.89-11.184-3.406-4.415-3.952-8.409-1.43-16.566,2.27-7.526,11.815-11.268,16.482-12.53,4.667-1.3,6.853-6.77,11.773-5.592,3.069.757,4.457,5.172,4.835,9.418-1.429.336-2.943.757-4.5,1.219C670.478-345.076,655.51-337.507,660.261-330.023Z" transform="translate(-605.476 365.624)"/>
    </g>
    <path id="Path_6711" data-name="Path 6711" class="cls-8" d="M942.745-365.883l-224.2-15.57A13.013,13.013,0,0,0,710-379.035l-.038-.05L698.78-370.7l6.177-.643a13.539,13.539,0,0,0-.278,2.733V8.9a15.062,15.062,0,0,0,13.867,14.766L941.929,39.175l1.186,3.57,7.278-5.281a11.478,11.478,0,0,0,1.1-.8l.837-.605v-.025a12.737,12.737,0,0,0,4.28-9.641v-377.51A15.065,15.065,0,0,0,942.745-365.883Z" transform="translate(198.016 39.768)"/>
    <path id="Path_6712" data-name="Path 6712" class="cls-9" d="M935.96,40.916l-224.2-15.57A15.065,15.065,0,0,1,697.894,10.58V-366.93a12.742,12.742,0,0,1,13.867-12.841L935.96-364.2a15.062,15.062,0,0,1,13.866,14.766V28.075A12.74,12.74,0,0,1,935.96,40.916Z" transform="translate(195.177 45.15)"/>
    <path id="Path_6713" data-name="Path 6713" class="cls-10" d="M941.075-348.72V-3.106a8.605,8.605,0,0,1-9.2,8.91L742.124-7.865l-34.2-2.472a10.307,10.307,0,0,1-9.2-10.263V-366.215a8.562,8.562,0,0,1,9.2-8.821l73.021,5.273a4.643,4.643,0,0,1,4.217,4.621v2.283a8.526,8.526,0,0,0,7.72,8.493l54.079,3.919a7.006,7.006,0,0,0,6.6-3.406,6.371,6.371,0,0,0,.988-3.174,2.313,2.313,0,0,0,.093-.79v-2.287a3.945,3.945,0,0,1,2.064-3.544,3.854,3.854,0,0,1,2.2-.513l72.974,5.272A10.178,10.178,0,0,1,941.075-348.72Z" transform="translate(197.84 60.354)"/>
    <path id="Path_6714" data-name="Path 6714" class="cls-8" d="M756.922-366.576l-29.558-2.052a4.315,4.315,0,0,1-3.969-4.23h0a3.645,3.645,0,0,1,3.969-3.675l29.558,2.052a4.312,4.312,0,0,1,3.969,4.23h0A3.647,3.647,0,0,1,756.922-366.576Z" transform="translate(276.896 55.606)"/>
    <path id="Path_6715" data-name="Path 6715" class="cls-11" d="M790.475-275.341l-85.149-5.913v-84.755l85.149,5.913Z" transform="translate(218.993 89.36)"/>
    <path id="Path_6716" data-name="Path 6716" class="cls-12" d="M818.531-294.728l-85.15-5.913V-357.4l85.15,5.913Z" transform="translate(308.897 116.938)"/>
    <path id="Path_6717" data-name="Path 6717" class="cls-13" d="M828.753-202.916l-123.428-8.571V-339.009l123.428,8.572Z" transform="translate(218.993 175.885)"/>
    <path id="Path_6718" data-name="Path 6718" class="cls-12" d="M845.158-243.433l-139.832-9.711v-50.542l139.832,9.71Z" transform="translate(218.993 289.078)"/>
    <path id="Path_6719" data-name="Path 6719" class="cls-11" d="M787.2-252.2l-44.528-3.092v-44.322l44.528,3.092Z" transform="translate(338.667 302.13)"/>
    <path id="Path_6720" data-name="Path 6720" class="cls-11" d="M741.184-253.011v-76.2l50.778,3.527v76.2Z" transform="translate(333.904 207.274)"/>
    <g id="Group_3391" data-name="Group 3391" transform="translate(934.768 -129.522)">
      <path id="Path_6721" data-name="Path 6721" class="cls-14" d="M741.685-318.16l-33.874-2.127v-10.73l33.874,2.128Z" transform="translate(-707.811 331.017)"/>
      <path id="Path_6722" data-name="Path 6722" class="cls-14" d="M741.685-313.629l-33.874-2.127v-10.73l33.874,2.128Z" transform="translate(-707.811 345.536)"/>
      <path id="Path_6723" data-name="Path 6723" class="cls-15" d="M741.685-309.1l-33.874-2.127v-10.73l33.874,2.128Z" transform="translate(-707.811 360.056)"/>
      <path id="Path_6724" data-name="Path 6724" class="cls-14" d="M741.685-304.567l-33.874-2.128v-10.729l33.874,2.127Z" transform="translate(-707.811 374.576)"/>
      <path id="Path_6725" data-name="Path 6725" class="cls-14" d="M775.551-316.033l-56.883-3.573v-10.729l56.883,3.572Z" transform="translate(-673.022 333.202)"/>
      <path id="Path_6726" data-name="Path 6726" class="cls-15" d="M775.551-311.5l-56.883-3.573V-325.8l56.883,3.573Z" transform="translate(-673.022 347.721)"/>
      <path id="Path_6727" data-name="Path 6727" class="cls-14" d="M775.551-306.97l-56.883-3.573v-10.73l56.883,3.573Z" transform="translate(-673.022 362.241)"/>
      <path id="Path_6728" data-name="Path 6728" class="cls-15" d="M775.551-302.44l-56.883-3.573v-10.73l56.883,3.573Z" transform="translate(-673.022 376.761)"/>
    </g>
    <path id="Path_6729" data-name="Path 6729" class="cls-16" d="M760.906-321.482h0a2.08,2.08,0,0,1-2.569-2.22v-31.656a3.567,3.567,0,0,1,2.569-3.385h0a2.076,2.076,0,0,1,2.569,2.22v31.652A3.57,3.57,0,0,1,760.906-321.482Z" transform="translate(388.87 112.451)"/>
    <path id="Path_6730" data-name="Path 6730" class="cls-16" d="M760.906-324h0c-1.417.189-2.569-.391-2.569-1.3v-18.517c0-.9,1.152-1.791,2.569-1.98h0c1.421-.189,2.569.391,2.569,1.3v18.517C763.475-325.08,762.327-324.192,760.906-324Z" transform="translate(388.87 154.008)"/>
    <path id="Path_6731" data-name="Path 6731" class="cls-17" d="M700.987-393.144l-5.979-.715a5.188,5.188,0,0,0-2.023.16l.013-.017-.046.021c-.042.013-.08.034-.122.05l-.959.4-1.951.908.854.147a4.51,4.51,0,0,0-1.131,2.935v16.675a6.159,6.159,0,0,0,5.365,5.891l5.979.715a4.616,4.616,0,0,0,5.365-4.608v-16.675A6.155,6.155,0,0,0,700.987-393.144Z" transform="translate(168.736 0)"/>
    <g id="Group_3392" data-name="Group 3392" transform="translate(854.414 -362.478)">
      <path id="Path_6732" data-name="Path 6732" class="cls-17" d="M711.573-379.235a2.406,2.406,0,0,1-.168-.294,14.508,14.508,0,0,0-8.956-6.559.252.252,0,0,0-.168-.042c-.42-.084-.841-.168-1.261-.21a11.306,11.306,0,0,0-7.148,1.43,10.042,10.042,0,0,0-3.448,3.2,7.558,7.558,0,0,0-.841,1.64,9.459,9.459,0,0,0-.673,2.186,11.581,11.581,0,0,0-.21,2.144,9.216,9.216,0,0,0,.126,1.514,10.959,10.959,0,0,0,.757,3.069,13.889,13.889,0,0,0,1.892,3.364,14.176,14.176,0,0,0,9.545,5.55,11.521,11.521,0,0,0,5.129-.5,7.8,7.8,0,0,0,2.523-1.219,8.5,8.5,0,0,0,1.892-1.556,10.476,10.476,0,0,0,2.775-7.064v-.21A12.756,12.756,0,0,0,711.573-379.235ZM704-367.21a6.433,6.433,0,0,1-2.985.294,8.68,8.68,0,0,1-7.568-8.283,6.239,6.239,0,0,1,.463-2.4,4.668,4.668,0,0,1,.757-1.429,6.117,6.117,0,0,1,1.471-1.472,6.825,6.825,0,0,1,4.878-1.177,3.373,3.373,0,0,1,.883.21h.042a8.683,8.683,0,0,1,5.424,3.952.364.364,0,0,1,.126.252,7.368,7.368,0,0,1,1.093,3.868.715.715,0,0,1-.042.294A6.151,6.151,0,0,1,704-367.21Z" transform="translate(-688.7 386.422)"/>
    </g>
    <g id="Group_3393" data-name="Group 3393" transform="translate(852.438 -363.918)">
      <path id="Path_6733" data-name="Path 6733" class="cls-10" d="M714.425-379.02c-.126-.168-.211-.336-.337-.5a16.737,16.737,0,0,0-11.562-7.148,13.273,13.273,0,0,0-8.2,1.6,11.388,11.388,0,0,0-3.7,3.238,10.723,10.723,0,0,0-1.009,1.64,9.869,9.869,0,0,0-1.009,2.691,12.957,12.957,0,0,0-.379,3.153v80.181c0,.463.042.883.084,1.346v.168a16.363,16.363,0,0,0,8.031,12.067,10.843,10.843,0,0,0,1.556.8,15.411,15.411,0,0,0,4.625,1.3h.042a13.562,13.562,0,0,0,6.307-.673,12.071,12.071,0,0,0,7.947-11.6v-80.181A15.125,15.125,0,0,0,714.425-379.02Zm-7.989,95.528a9.224,9.224,0,0,1-3.91.336,10.627,10.627,0,0,1-4.289-1.472,11,11,0,0,1-5.171-7.736c-.042-.42-.084-.841-.084-1.262v-80.181a8.006,8.006,0,0,1,.757-3.49,6.373,6.373,0,0,1,.841-1.472,7.1,7.1,0,0,1,2.271-2.06c.042,0,.042,0,.084-.042a8.614,8.614,0,0,1,5.592-1.135,10.859,10.859,0,0,1,7.9,5.13c.042,0,.042,0,.042.042a9.908,9.908,0,0,1,1.6,5.3v80.223a8.019,8.019,0,0,1-5.55,7.778A.147.147,0,0,1,706.436-283.492Z" transform="translate(-688.23 386.765)"/>
    </g>
    <g id="Group_3394" data-name="Group 3394" transform="translate(854.414 -281.514)">
      <path id="Path_6734" data-name="Path 6734" class="cls-17" d="M710.564-361.518a17.319,17.319,0,0,0-1.892-2.018,13.879,13.879,0,0,0-7.652-3.532,11.109,11.109,0,0,0-7.106,1.388,9.176,9.176,0,0,0-2.439,1.934,9.614,9.614,0,0,0-1.892,2.9,10.5,10.5,0,0,0-.883,4.331,14.075,14.075,0,0,0,7.695,12.109,14.452,14.452,0,0,0,4.625,1.429h.042a11.9,11.9,0,0,0,5.214-.547,10.416,10.416,0,0,0,7.064-10.049A13.307,13.307,0,0,0,710.564-361.518Zm-9.544,13.875a8.68,8.68,0,0,1-7.568-8.283,6.317,6.317,0,0,1,2.817-5.382,6.734,6.734,0,0,1,4.751-1.135,8.722,8.722,0,0,1,7.568,8.325,6.227,6.227,0,0,1-4.667,6.181A6.081,6.081,0,0,1,701.019-347.643Z" transform="translate(-688.7 367.166)"/>
    </g>
    <path id="Path_6735" data-name="Path 6735" class="cls-10" d="M687.375-377.067c0,9.671,8.01,18.462,17.891,19.644s17.89-5.7,17.89-15.363-8.01-18.462-17.89-19.644S687.375-386.733,687.375-377.067Z" transform="translate(161.468 4.269)"/>
    <g id="Group_3396" data-name="Group 3396" transform="translate(796.898 -354.659)">
      <g id="Group_3395" data-name="Group 3395">
        <path id="Path_6736" data-name="Path 6736" class="cls-6" d="M732.746-383.848a2.442,2.442,0,0,0-.631-.462,3.193,3.193,0,0,0-.841-.252h-.336a2.274,2.274,0,0,0-1.976,1.3.155.155,0,0,0-.042.126l-4.078,8.241a2.315,2.315,0,0,0,1.051,3.111,2.278,2.278,0,0,0,1.051.252,2.305,2.305,0,0,0,1.724-.8,1.515,1.515,0,0,0,.336-.5l2.186-4.373,1.472-2.985.5-1.009A2.363,2.363,0,0,0,732.746-383.848Zm-8.914,16.272a2.28,2.28,0,0,0-3.111,1.051l-4.162,8.367a2.332,2.332,0,0,0,1.093,3.111,2.239,2.239,0,0,0,1.009.252,2.307,2.307,0,0,0,2.1-1.3l4.12-8.367A2.315,2.315,0,0,0,723.833-367.577Zm-8.241,16.734a2.327,2.327,0,0,0-3.153,1.051l-4.121,8.367a2.315,2.315,0,0,0,1.051,3.111,2.281,2.281,0,0,0,1.051.252,2.247,2.247,0,0,0,2.06-1.3l4.162-8.367A2.352,2.352,0,0,0,715.592-350.842Zm-8.283,16.734a2.28,2.28,0,0,0-3.111,1.051l-4.163,8.367a2.332,2.332,0,0,0,1.093,3.111,2.24,2.24,0,0,0,1.009.252,2.307,2.307,0,0,0,2.1-1.3L708.36-331A2.269,2.269,0,0,0,707.309-334.108Zm-8.241,16.734a2.328,2.328,0,0,0-3.153,1.051l-4.12,8.367a2.315,2.315,0,0,0,1.051,3.111,2.279,2.279,0,0,0,1.051.252,2.248,2.248,0,0,0,2.06-1.3l4.162-8.367A2.339,2.339,0,0,0,699.068-317.374Zm-8.283,16.734a2.28,2.28,0,0,0-3.111,1.051l-4.163,8.367a2.332,2.332,0,0,0,1.093,3.111,2.239,2.239,0,0,0,1.009.252,2.307,2.307,0,0,0,2.1-1.3l4.121-8.367A2.3,2.3,0,0,0,690.785-300.64Zm-8.241,16.734a2.212,2.212,0,0,0-2.228.084,2.285,2.285,0,0,0-.925.967l-4.12,8.367a2.29,2.29,0,0,0-.084,1.892.041.041,0,0,0,.042.042,2.292,2.292,0,0,0,1.093,1.177h.042a.041.041,0,0,0,.042.042,2.5,2.5,0,0,0,.967.21,2.32,2.32,0,0,0,2.06-1.3l2.985-6.012,1.177-2.355A2.352,2.352,0,0,0,682.544-283.906Z" transform="translate(-675.02 384.563)"/>
      </g>
    </g>
    <g id="Group_3397" data-name="Group 3397" transform="translate(850.546 -363.038)">
      <path id="Path_6737" data-name="Path 6737" class="cls-9" d="M716.287-372.165v-.042a15.452,15.452,0,0,0-2.187-6.349l-.126-.252a17.08,17.08,0,0,0-8.577-6.853.252.252,0,0,0-.168-.042,13.278,13.278,0,0,0-3.153-.757,13.558,13.558,0,0,0-6.307.715,12.377,12.377,0,0,0-4.289,2.607,13.781,13.781,0,0,0-1.261,1.472,11.309,11.309,0,0,0-2.144,4.793.155.155,0,0,0-.042.126,12.628,12.628,0,0,0-.252,2.565v80.223c0,6.769,4.961,13.076,11.563,15.094a15.055,15.055,0,0,0,2.733.589,15.431,15.431,0,0,0,1.934.126,13.178,13.178,0,0,0,6.307-1.682,12.143,12.143,0,0,0,6.054-10.722v-80.181C716.371-371.24,716.329-371.7,716.287-372.165Zm-17.912-9.376a9.777,9.777,0,0,1,3.7-.252,10.44,10.44,0,0,1,2.775.757h.042a11.135,11.135,0,0,1,4.919,4.078c.084.084.126.168.21.252a9.96,9.96,0,0,1,1.472,4.036,7.283,7.283,0,0,1,.126,1.345v80.181a8.156,8.156,0,0,1-3.658,6.938.147.147,0,0,1-.084.042,8.114,8.114,0,0,1-3.868,1.261,9.99,9.99,0,0,1-1.934-.042,11.873,11.873,0,0,1-2.733-.715,10.9,10.9,0,0,1-6.812-9.755v-80.181a8.268,8.268,0,0,1,1.6-5,8.652,8.652,0,0,1,1.22-1.261,7.811,7.811,0,0,1,2.943-1.64C698.333-381.5,698.333-381.5,698.375-381.541Z" transform="translate(-687.78 386.556)"/>
    </g>
    <g id="Group_3398" data-name="Group 3398" transform="translate(852.522 -280.662)">
      <path id="Path_6738" data-name="Path 6738" class="cls-18" d="M712.006-357.921a13.884,13.884,0,0,0-1.892-3.364,14.321,14.321,0,0,0-9.544-5.592,11.306,11.306,0,0,0-5.214.547,8.717,8.717,0,0,0-2.439,1.177,8.679,8.679,0,0,0-1.892,1.6,10.615,10.615,0,0,0-2.775,7.274v.168a13.983,13.983,0,0,0,8.031,12.067c.5.252,1.009.463,1.556.673a15.161,15.161,0,0,0,2.733.631,15.229,15.229,0,0,0,1.934.084,11.267,11.267,0,0,0,5.213-1.514,10.325,10.325,0,0,0,5.172-9.166A12.88,12.88,0,0,0,712.006-357.921Zm-14.3-4.036a6.464,6.464,0,0,1,2.859-.252,8.674,8.674,0,0,1,7.526,8.283,6.221,6.221,0,0,1-2.733,5.34,6.658,6.658,0,0,1-4.793,1.177,7.828,7.828,0,0,1-2.4-.673,8.65,8.65,0,0,1-5.171-7.61v-.126A6.3,6.3,0,0,1,697.71-361.958Z" transform="translate(-688.25 366.964)"/>
    </g>
    <g id="Group_3399" data-name="Group 3399" transform="translate(852.522 -361.618)">
      <path id="Path_6739" data-name="Path 6739" class="cls-18" d="M711.165-378.965c0-.042,0-.042-.042-.042a14.424,14.424,0,0,0-10.553-7.106,10.889,10.889,0,0,0-5.256.547A9.78,9.78,0,0,0,691.193-383a8.222,8.222,0,0,0-1.177,1.472,10.42,10.42,0,0,0-1.135,2.271,10.685,10.685,0,0,0-.631,3.7,13.28,13.28,0,0,0,.546,3.658,14.364,14.364,0,0,0,2.228,4.289,10.789,10.789,0,0,0,1.892,2.018,13.649,13.649,0,0,0,7.652,3.574,11.185,11.185,0,0,0,7.022-1.387,8.91,8.91,0,0,0,2.523-1.976,9.617,9.617,0,0,0,1.892-2.9,10.5,10.5,0,0,0,.883-4.331A12.956,12.956,0,0,0,711.165-378.965ZM693-374.971a6.209,6.209,0,0,1,1.219-3.826,4.63,4.63,0,0,1,1.178-1.219,5.45,5.45,0,0,1,2.186-1.135,6.434,6.434,0,0,1,2.985-.294,8.575,8.575,0,0,1,6.013,3.7,1.087,1.087,0,0,1,.294.463,7.5,7.5,0,0,1,1.219,4.12,6.287,6.287,0,0,1-2.649,5.3,6.824,6.824,0,0,1-4.877,1.177A8.68,8.68,0,0,1,693-374.971Z" transform="translate(-688.25 386.218)"/>
    </g>
    <path id="Path_6740" data-name="Path 6740" class="cls-9" d="M686.924-376.859c0,9.671,8.01,18.462,17.89,19.644s17.89-5.7,17.89-15.363-8.01-18.462-17.89-19.644S686.924-386.525,686.924-376.859Z" transform="translate(160.023 4.935)"/>
    <path id="Path_6741" data-name="Path 6741" class="cls-18" d="M694.554-366.477l5.979.715a4.616,4.616,0,0,0,5.365-4.608v-16.675a6.155,6.155,0,0,0-5.365-5.891l-5.979-.711a4.609,4.609,0,0,0-5.361,4.6v16.675A6.154,6.154,0,0,0,694.554-366.477Z" transform="translate(167.294 0.667)"/>
    <path id="Path_6742" data-name="Path 6742" class="cls-19" d="M766.683-338A48.33,48.33,0,0,0,750.7-348c-35.722-12.416-62.059,13.757-43.85,51.38-31.383,15.3-33.409,43.521-12.277,59.608a56.039,56.039,0,0,0,14.947,7.825c35.722,12.42,102.65-30.954,102.65-30.954S793.852-313.838,766.683-338Zm-39.334-.156a5.015,5.015,0,0,1-5.016-5.016,5.015,5.015,0,0,1,5.016-5.016,5.015,5.015,0,0,1,5.016,5.016A5.015,5.015,0,0,1,727.349-338.153Z" transform="translate(139.914 137.086)"/>
    <path id="Path_6743" data-name="Path 6743" class="cls-20" d="M693.275-349.071s1.782.059,2.392.1c.576.034,2.346.206,2.346.206a17.943,17.943,0,0,0,.286-2.994h-4.667A10.16,10.16,0,0,1,693.275-349.071Z" transform="translate(180.375 135.029)"/>
    <path id="Path_6744" data-name="Path 6744" class="cls-21" d="M687.811-318.811a14,14,0,0,0,3.641,9.38,13.723,13.723,0,0,0,8.022,4.385,9.769,9.769,0,0,0,2.333.231,12.962,12.962,0,0,0,7.513-2.224,5.2,5.2,0,0,0-1.219-4.31,2.666,2.666,0,0,1-.286-.3,9.741,9.741,0,0,1-6.008,2.17,8.314,8.314,0,0,1-2.426-.328,9.276,9.276,0,0,1-4.616-2.939,9.049,9.049,0,0,1-2.287-6.067,9.36,9.36,0,0,1,9.33-9.33h2.333V-362.1h-4.667v29.487A14,14,0,0,0,687.811-318.811Z" transform="translate(162.865 101.871)"/>
  </g>
</svg>
