<svg xmlns="http://www.w3.org/2000/svg" xmlns:xlink="http://www.w3.org/1999/xlink" width="1918.71" height="1637.002" viewBox="0 0 1918.71 1637.002">
  <defs>
    <style>
      .cls-1 {
        fill: url(#linear-gradient);
      }

      .cls-2, .cls-3 {
        opacity: 0.4;
        mix-blend-mode: overlay;
        isolation: isolate;
      }

      .cls-2 {
        fill: url(#linear-gradient-2);
      }

      .cls-3 {
        fill: url(#linear-gradient-3);
      }
    </style>
    <linearGradient id="linear-gradient" x1="0.496" y1="0.017" x2="0.504" y2="1.012" gradientUnits="objectBoundingBox">
      <stop offset="0" stop-color="#c47acc"/>
      <stop offset="0.165" stop-color="#98509e"/>
      <stop offset="0.303" stop-color="#7b4692"/>
      <stop offset="0.499" stop-color="#593a84"/>
      <stop offset="0.685" stop-color="#41327a"/>
      <stop offset="0.857" stop-color="#332d75"/>
      <stop offset="1" stop-color="#2e2c73"/>
    </linearGradient>
    <linearGradient id="linear-gradient-2" x1="0.646" y1="1.002" x2="0.412" y2="0.002" gradientUnits="objectBoundingBox">
      <stop offset="0"/>
      <stop offset="0.371" stop-color="#696969"/>
      <stop offset="0.678" stop-color="#b9b9b9"/>
      <stop offset="0.894" stop-color="#ebebeb"/>
      <stop offset="1" stop-color="#fff"/>
    </linearGradient>
    <linearGradient id="linear-gradient-3" x1="0.705" y1="0.978" x2="0.455" y2="0.383" gradientUnits="objectBoundingBox">
      <stop offset="0.012"/>
      <stop offset="0.379" stop-color="#696969"/>
      <stop offset="0.682" stop-color="#b9b9b9"/>
      <stop offset="0.895" stop-color="#ebebeb"/>
      <stop offset="1" stop-color="#fff"/>
    </linearGradient>
  </defs>
  <g id="JOB_SITE_ENG_BLOB" data-name="JOB SITE ENG BLOB" transform="translate(261.845 829.115) rotate(-17)">
    <path id="Path_1519" data-name="Path 1519" class="cls-1" d="M1226.94,712.1c-44.316,31.753,8.442,236.9-109.467,231.333-191.064,196.972-27.964,224.8-340.929,224.8-233.48,0-415.182-104.369-487.419-214.056C251.65,897,254.269,885.862,195.873,882.33,22.354,871.823-23.638,744.587-30.406,670.36c-7.08-76.2,132.488-156.495,169.366-241.418S93.982,175.961,208.8,61.127c229.77-196.234,386.783,44.25,549.583,52.98a683.779,683.779,0,0,0,73.075-.415c100.349-5.3,202.773-27.137,301.869-21.1,39.662,2.392,78.9,9.248,117.1,23.39C1404.8,173.052,1516.312,526.732,1226.94,712.1Z" transform="translate(-113.632 -392.946)"/>
    <path id="Path_1520" data-name="Path 1520" class="cls-2" d="M1367.725,720.728c-189.116,124.65-92.395,490.913-502.545,490.913-406.461,0-496.106-282.413-691.186-294.523C-24.529,904.756-68.35,789.825-37.838,664.8S182.18,439.166,296.039,417.02c191.135-37.426,401.338,24.838,576.282-62.752,36.327-18.1,70.865-43.542,90.033-80,14.292-27.155,19.178-58.465,20.008-89.3C983.8,136.9,975.34,88.7,958.665,43.812a138.025,138.025,0,0,0-8.219-17.738c160.78-8.808,326.2-55.539,479.344,2.692C1606.406,95.917,1698.8,502.626,1367.725,720.728Z" transform="translate(-101.204 -412.039)"/>
    <path id="Path_1521" data-name="Path 1521" class="cls-3" d="M799.439,483.681C761.778,507.057,780.14,635.93,757,658.006,604.579,803.424,661.5,812.84,407.953,812.84,217.491,812.84,58.927,771.976,0,685.306c44.83-51.753,215.453-164.662,285.593-179.944,92.721-20.126,190.97-23.08,276.646-62.84,76-35.325,137.226-99.236,167.79-175.3,30.571-75.986,30.148-163.14-1.185-238.88A249.682,249.682,0,0,0,715,0c32.355,1.89,64.365,7.307,95.527,18.482C936.457,63.577,1035.5,337.215,799.439,483.681Z" transform="translate(232.305 -146.795)"/>
  </g>
</svg>
