<svg xmlns="http://www.w3.org/2000/svg" xmlns:xlink="http://www.w3.org/1999/xlink" width="2550.283" height="2470.272" viewBox="0 0 2550.283 2470.272">
  <defs>
    <style>
      .cls-1 {
        fill: url(#linear-gradient);
      }

      .cls-2 {
        opacity: 0.327;
        fill: url(#linear-gradient-2);
      }

      .cls-2, .cls-3 {
        mix-blend-mode: overlay;
        isolation: isolate;
      }

      .cls-3 {
        opacity: 0.49;
        fill: url(#linear-gradient-3);
      }
    </style>
    <linearGradient id="linear-gradient" x1="0.522" y1="-0.052" x2="0.484" y2="1.028" gradientUnits="objectBoundingBox">
      <stop offset="0" stop-color="#c47acc"/>
      <stop offset="0.165" stop-color="#98509e"/>
      <stop offset="0.303" stop-color="#7b4692"/>
      <stop offset="0.499" stop-color="#593a84"/>
      <stop offset="0.685" stop-color="#41327a"/>
      <stop offset="0.857" stop-color="#332d75"/>
      <stop offset="1" stop-color="#2e2c73"/>
    </linearGradient>
    <linearGradient id="linear-gradient-2" x1="0.804" y1="1.018" x2="0.072" y2="0.061" gradientUnits="objectBoundingBox">
      <stop offset="0"/>
      <stop offset="0.055" stop-color="#1f1f1f"/>
      <stop offset="0.156" stop-color="#535353"/>
      <stop offset="0.261" stop-color="#818181"/>
      <stop offset="0.369" stop-color="#a8a8a8"/>
      <stop offset="0.48" stop-color="#c7c7c7"/>
      <stop offset="0.594" stop-color="#e0e0e0"/>
      <stop offset="0.715" stop-color="#f1f1f1"/>
      <stop offset="0.844" stop-color="#fbfbfb"/>
      <stop offset="1" stop-color="#fff"/>
    </linearGradient>
    <linearGradient id="linear-gradient-3" x1="0.721" y1="0.942" x2="0.303" y2="0.395" gradientUnits="objectBoundingBox">
      <stop offset="0"/>
      <stop offset="0.089" stop-color="#1d1d1d"/>
      <stop offset="0.346" stop-color="#6c6c6c"/>
      <stop offset="0.575" stop-color="#ababab"/>
      <stop offset="0.767" stop-color="#d8d8d8"/>
      <stop offset="0.914" stop-color="#f4f4f4"/>
      <stop offset="1" stop-color="#fff"/>
    </linearGradient>
  </defs>
  <g id="Hunter_edge_ENG_XL_BLOB" data-name="Hunter edge ENG XL BLOB" transform="matrix(-0.921, -0.391, 0.391, -0.921, 1831.758, 2470.272)">
    <path id="Path_1631" data-name="Path 1631" class="cls-1" d="M1644.972,1511.273c-272.541-45.665-67.685,104.081-499.624,208.327-50.792,12.256-208.551,121.3-245.755,119.3a141.122,141.122,0,0,1-14.141-1,6.853,6.853,0,0,1-2.121-.224q-5.674-.495-11.03-1.332a62.15,62.15,0,0,1-6.34-1,31.574,31.574,0,0,1-4.466-.9,86.394,86.394,0,0,1-9.687-1.886,7.588,7.588,0,0,1-1.449-.448c-3.229-.672-6.34-1.449-9.463-2.345-4.007-1-7.8-2.227-11.584-3.559-3.783-1.225-7.578-2.569-11.137-4.007a214.859,214.859,0,0,1-21.165-9.7c-2.121-1-4.231-2.227-6.234-3.335a48.393,48.393,0,0,1-4.678-2.675c-1.779-1-3.453-2.122-5.126-3.123a240.511,240.511,0,0,1-34.859-26.728c-2.569-2.345-5.02-4.785-7.578-7.236q-3.5-3.341-7.012-7.024c-14.6-15.367-27.741-32.3-40.209-50.12-3.123-4.348-6.128-8.8-9.251-13.364-7.46-11.36-14.813-22.945-22.049-34.646-3.123-4.9-6.128-9.687-9.133-14.589-6.128-10.017-12.256-20.046-18.608-29.957-2-3.229-4.007-6.352-6.01-9.475q-6.187-9.687-12.7-19.374c-3.111-4.679-6.34-9.133-9.463-13.482-1.555-2.227-3.123-4.337-4.678-6.458-61.032-83.423-29.026-253.957-200.774-234.795-5.574,1-11.03,2-16.381,2.781-66.489,10.135-123.738,4.23-172.42-14.931-94.005-36.638-155.038-122.512-185.666-235.349C8.586,1030.923-3.67,966.108,1.009,897.156,21.172,598.206,274.787,286.009,579.63,296.144,623.08,297.476,537.656-16.371,581.765.67,766.547,72.52,756.238,282.731,899.915,94.5c6.022-7.8,100.518,66.431,107.424,57.958,2.793-3.677,5.8-7.13,8.8-10.583l5.9-6.564c3.677-4.019,7.353-7.907,11.136-11.7,3.783-3.677,7.578-7.342,11.478-10.795,3.677-3.347,7.46-6.576,11.36-9.8.106,0,.224-.118.33-.224,3.783-3.005,7.683-6.022,11.584-8.909a10,10,0,0,1,1.108-.778c3.677-2.675,7.471-5.244,11.254-7.7l2-1.332c3.571-2.227,7.024-4.349,10.583-6.458,4.125-2.345,8.355-4.679,12.586-6.8,3.677-1.779,7.354-3.559,11.03-5.232a24.66,24.66,0,0,1,2.675-1.108c4.007-1.791,8.013-3.453,12.138-5.02C1135.1,58,1139,56.67,1142.779,55.444c4.9-1.673,9.923-3.123,14.813-4.348,3.017-.778,5.9-1.438,8.8-2.109,2.451-.554,4.9-1.12,7.354-1.567,3.229-.66,6.458-1.214,9.581-1.662l2.333-.342c4.007-.66,8.025-1.108,12.032-1.556h.9c3.229-.33,6.564-.672,9.793-.778a13.535,13.535,0,0,1,2.121-.118c1.331-.106,2.675-.212,4.007-.212,3.57-.118,7.247-.224,10.806-.224,51.9,0,104.588,14.365,153.706,40.315A383.105,383.105,0,0,1,1415,104.456a416.568,416.568,0,0,1,34.411,25.726c3.677,3.123,7.353,6.234,10.924,9.463,7.236,6.458,14.365,13.152,21.271,20.163a465.709,465.709,0,0,1,93.451,137.219c71.285,160.506-22.839,162.509,240.358,351.745C2078.838,838.009,2061.1,1581.226,1644.972,1511.273Z" transform="translate(0 0)"/>
    <path id="Path_1632" data-name="Path 1632" class="cls-2" d="M1251.679,1436.745c-272.542-45.665-56.654,136.081-488.594,240.327-50.791,12.256-193.811,107-231.015,104.994a141.086,141.086,0,0,1-14.141-1,6.856,6.856,0,0,1-2.121-.224q-5.674-.5-11.03-1.332a62.176,62.176,0,0,1-6.34-1,31.562,31.562,0,0,1-4.466-.9,86.36,86.36,0,0,1-9.687-1.886,7.584,7.584,0,0,1-1.449-.448c-3.229-.672-6.34-1.45-9.463-2.345-4.007-1-7.8-2.227-11.584-3.559-3.783-1.225-7.577-2.569-11.136-4.007a214.919,214.919,0,0,1-21.165-9.7c-2.121-1-4.231-2.227-6.234-3.335a48.4,48.4,0,0,1-4.678-2.675c-1.78-1-3.453-2.121-5.126-3.123a240.47,240.47,0,0,1-34.859-26.727c-2.569-2.345-5.02-4.784-7.578-7.235-2.333-2.227-4.678-4.572-7.012-7.024-14.6-15.367-27.741-32.3-40.209-50.12-3.123-4.348-6.246-8.909-9.251-13.364-7.46-11.36-14.813-22.945-22.049-34.647-3.123-4.9-6.128-9.687-9.133-14.589-6.128-10.017-12.256-20.046-18.608-29.957-2-3.123-4.007-6.352-6.01-9.475q-6.187-9.687-12.7-19.374c-3.111-4.679-6.34-9.133-9.463-13.482-1.556-2.227-3.123-4.337-4.678-6.458-61.032-83.423-43.766-239.657-215.514-220.5-5.574,1-11.03,2-16.381,2.781,60.49-66.053,127.756-133.33,168.531-156.051,192.913-107.593,204.156-53.9,346.277-142.676,179.549-112.389,283.584-334.929,254.4-544.659-16.71-120.627-76.965-233.346-163.4-318.442,6.022-7.8,12.362-16.145,19.268-24.618,2.793-3.677,5.8-7.13,8.8-10.582l5.9-6.564c3.677-4.019,7.354-7.907,11.136-11.7C654.7,77.4,658.5,73.736,662.4,70.283c3.677-3.347,7.46-6.576,11.36-9.8.106,0,.224-.118.33-.224,3.783-3.005,7.684-6.022,11.584-8.909a10,10,0,0,1,1.108-.778c3.677-2.675,7.471-5.244,11.254-7.7l2-1.332c3.571-2.227,7.024-4.348,10.582-6.458,4.125-2.345,8.355-4.679,12.586-6.8,3.677-1.779,7.354-3.559,11.03-5.232a24.648,24.648,0,0,1,2.675-1.108c4.007-1.791,8.013-3.453,12.138-5.02,3.783-1.449,7.684-2.781,11.466-4.007,4.9-1.673,9.922-3.123,14.813-4.348,3.017-.778,5.9-1.438,8.8-2.109,2.451-.554,4.9-1.12,7.354-1.567,3.229-.66,6.458-1.214,9.581-1.662l2.333-.342c4.007-.66,8.025-1.108,12.032-1.556h.9c3.229-.33,6.564-.672,9.793-.778a13.535,13.535,0,0,1,2.121-.118c1.332-.106,2.675-.212,4.007-.212C835.82.106,839.5,0,843.055,0c51.9,0,104.588,14.365,153.706,40.315a410.032,410.032,0,0,1,35.978,21.613c11.808,7.907,23.275,16.593,34.411,25.726,3.677,3.123,7.353,6.234,10.924,9.463,7.236,6.458,14.365,13.152,21.271,20.163A465.711,465.711,0,0,1,1192.8,254.5c71.285,160.506-22.839,162.509,240.358,351.745C1696.576,795.481,1667.8,1506.7,1251.679,1436.745Z" transform="translate(382.263 42.528)"/>
    <path id="Path_1633" data-name="Path 1633" class="cls-3" d="M626.087,999.109c-272.553-45.677-77.257,106.871-509.149,211.165C72.451,1220.986,33.774,1225.747,0,1225.3c22.473-71.414,69.187-137.019,124.527-188.789,85.1-79.746,190.285-133.9,288.769-196.39,98.5-62.623,194.457-138.056,245.331-243.092,53.855-110.987,50.438-241.607,27.529-362.858-9.828-52.217-23.216-103.7-36.308-155.179C646.277,65.157,633.491,32.136,623.662,0c27.67,34.211,75.727,76.47,163.357,139.4C1050.346,328.636,1042.2,1069.027,626.087,999.109Z" transform="translate(1028.433 509.338)"/>
  </g>
</svg>
