<svg id="Hunter_edge_ENG_XL_VECTOR" data-name="Hunter edge ENG XL VECTOR" xmlns="http://www.w3.org/2000/svg" xmlns:xlink="http://www.w3.org/1999/xlink" width="934.884" height="826.966" viewBox="0 0 934.884 826.966">
  <defs>
    <style>
      .cls-1 {
        fill: url(#linear-gradient);
      }

      .cls-2 {
        fill: url(#linear-gradient-2);
      }

      .cls-3 {
        fill: #fff;
      }

      .cls-4 {
        fill: url(#linear-gradient-3);
      }

      .cls-5 {
        fill: url(#linear-gradient-4);
      }

      .cls-6 {
        fill: url(#linear-gradient-5);
      }

      .cls-7 {
        fill: url(#linear-gradient-6);
      }

      .cls-8 {
        fill: url(#linear-gradient-7);
      }

      .cls-9 {
        fill: url(#linear-gradient-8);
      }

      .cls-10 {
        fill: url(#linear-gradient-9);
      }

      .cls-11 {
        fill: url(#linear-gradient-10);
      }

      .cls-12 {
        fill: url(#linear-gradient-11);
      }

      .cls-13 {
        fill: url(#linear-gradient-13);
      }

      .cls-14 {
        fill: url(#linear-gradient-14);
      }

      .cls-15 {
        fill: url(#linear-gradient-15);
      }

      .cls-16 {
        fill: url(#linear-gradient-16);
      }

      .cls-17 {
        fill: url(#linear-gradient-17);
      }

      .cls-18 {
        fill: url(#linear-gradient-18);
      }

      .cls-19 {
        fill: #ffde83;
      }

      .cls-20 {
        fill: #c47acc;
      }

      .cls-21 {
        fill: url(#linear-gradient-19);
      }

      .cls-22 {
        fill: #e096ea;
      }

      .cls-23 {
        opacity: 0.1;
      }

      .cls-24 {
        fill: #eef2f5;
      }

      .cls-25 {
        fill: #002172;
      }

      .cls-26 {
        fill: #db9ae5;
      }
    </style>
    <linearGradient id="linear-gradient" x1="0.516" y1="0.016" x2="0.483" y2="0.992" gradientUnits="objectBoundingBox">
      <stop offset="0" stop-color="#2e2c73"/>
      <stop offset="1" stop-color="#66c"/>
    </linearGradient>
    <linearGradient id="linear-gradient-2" x1="0.438" y1="0.94" x2="0.55" y2="0.142" xlink:href="#linear-gradient"/>
    <linearGradient id="linear-gradient-3" x1="0.365" y1="-0.971" x2="0.781" y2="3.556" gradientUnits="objectBoundingBox">
      <stop offset="0" stop-color="#2e2c73"/>
      <stop offset="0.759" stop-color="#66c"/>
    </linearGradient>
    <linearGradient id="linear-gradient-4" x1="0.287" y1="-1.451" x2="0.759" y2="2.869" xlink:href="#linear-gradient-3"/>
    <linearGradient id="linear-gradient-5" x1="0.259" y1="-2.118" x2="0.675" y2="2.408" xlink:href="#linear-gradient-3"/>
    <linearGradient id="linear-gradient-6" x1="0.515" y1="0.232" x2="0.475" y2="0.933" gradientUnits="objectBoundingBox">
      <stop offset="0" stop-color="#1e2f97"/>
      <stop offset="1" stop-color="#836087"/>
    </linearGradient>
    <linearGradient id="linear-gradient-7" x1="0.527" y1="-0.121" x2="0.497" y2="0.726" xlink:href="#linear-gradient-6"/>
    <linearGradient id="linear-gradient-8" x1="0" y1="0.5" x2="1" y2="0.5" xlink:href="#linear-gradient"/>
    <linearGradient id="linear-gradient-9" x1="1.22" y1="1.099" x2="-0.063" y2="0.033" gradientUnits="objectBoundingBox">
      <stop offset="0" stop-color="#db9ae5"/>
      <stop offset="1" stop-color="#98509e"/>
    </linearGradient>
    <linearGradient id="linear-gradient-10" y1="0.5" x2="1" y2="0.5" gradientUnits="objectBoundingBox">
      <stop offset="0" stop-color="#1e2f97"/>
      <stop offset="0.04" stop-color="#233396"/>
      <stop offset="0.272" stop-color="#3e4795"/>
      <stop offset="0.508" stop-color="#515594"/>
      <stop offset="0.749" stop-color="#5d5e94"/>
      <stop offset="1" stop-color="#616194"/>
    </linearGradient>
    <linearGradient id="linear-gradient-11" x1="1.627" y1="1.365" x2="-0.283" y2="-0.1" xlink:href="#linear-gradient-9"/>
    <linearGradient id="linear-gradient-13" x1="1.078" y1="0.971" x2="-0.355" y2="-0.196" xlink:href="#linear-gradient-9"/>
    <linearGradient id="linear-gradient-14" x1="0.496" y1="0.156" x2="0.509" y2="1.248" xlink:href="#linear-gradient-9"/>
    <linearGradient id="linear-gradient-15" x1="0.543" y1="0.255" x2="0.455" y2="0.851" xlink:href="#linear-gradient-6"/>
    <linearGradient id="linear-gradient-16" x1="0.682" y1="-0.299" x2="0.301" y2="1.372" xlink:href="#linear-gradient-9"/>
    <linearGradient id="linear-gradient-17" x1="0.249" y1="0.928" x2="0.736" y2="0.098" xlink:href="#linear-gradient-9"/>
    <linearGradient id="linear-gradient-18" x1="0.542" y1="-0.263" x2="0.46" y2="1.224" xlink:href="#linear-gradient-9"/>
    <linearGradient id="linear-gradient-19" x1="0.672" y1="-0.227" x2="0.398" y2="1.017" xlink:href="#linear-gradient-9"/>
  </defs>
  <g id="Group_3093" data-name="Group 3093" transform="translate(500.602 0)">
    <path id="Path_1634" data-name="Path 1634" class="cls-1" d="M522.567,271.945,511.35,265.5h0L329.994,161.3,137.421,50.66c-3.475-1.994-23.211,6.629-23.211,11.457l16.918,9.272V443.628c0,13.443,7.838,28.847,17.518,34.4L496.537,698.5c9.68,5.557,32.33-12.906,32.33-26.349V284.315C528.868,279.479,526.049,273.946,522.567,271.945Z" transform="translate(-113.401 -50.366)"/>
    <g id="Group_3092" data-name="Group 3092" transform="translate(0 9.643)">
      <path id="Path_1635" data-name="Path 1635" class="cls-2" d="M494.331,683.541l-362.7-208.394c-9.672-5.556-17.518-20.961-17.518-34.4V68.5c0-13.443,7.846-19.832,17.518-14.276l362.7,208.394c9.672,5.557,17.518,20.961,17.518,34.4V669.257C511.849,682.7,504,689.1,494.331,683.541Z" transform="translate(-114.109 -47.052)"/>
      <path id="Path_1636" data-name="Path 1636" class="cls-3" d="M505.548,338.751,120.4,117.467c-3.475-2-6.293-7.534-6.293-12.37V57.426c0-4.836,2.818-7.134,6.293-5.132L505.548,273.578c3.483,1.994,6.3,7.534,6.3,12.362v47.679C511.849,338.455,509.031,340.753,505.548,338.751Z" transform="translate(-114.109 -51.571)"/>
      <path id="Path_1637" data-name="Path 1637" class="cls-4" d="M133.814,72.966c0,6-3.5,8.847-7.814,6.365s-7.814-9.352-7.814-15.348,3.5-8.855,7.814-6.373S133.814,66.961,133.814,72.966Z" transform="translate(-85.55 -15.541)"/>
      <ellipse id="Ellipse_2" data-name="Ellipse 2" class="cls-5" cx="6.892" cy="12.319" rx="6.892" ry="12.319" transform="translate(50.873 56.168) rotate(-21.165)"/>
      <path id="Path_1638" data-name="Path 1638" class="cls-6" d="M139.142,76.015c0,6-3.5,8.855-7.822,6.373S123.5,73.036,123.5,67.031s3.5-8.847,7.814-6.365S139.142,70.018,139.142,76.015Z" transform="translate(-48.276 5.878)"/>
    </g>
  </g>
  <g id="Group_3094" data-name="Group 3094" transform="translate(525.222 116.603)">
    <path id="Path_1639" data-name="Path 1639" class="cls-3" d="M187.065,224.982,122.5,187.888c-2.938-1.689-5.316-6.365-5.316-10.44V69.872c0-4.083,2.378-6.021,5.316-4.331l64.565,37.094c2.938,1.689,5.316,6.365,5.316,10.441V220.65C192.381,224.726,190,226.671,187.065,224.982Z" transform="translate(-117.184 -64.93)"/>
    <path id="Path_1640" data-name="Path 1640" class="cls-3" d="M273.831,362.163l-123.6-71.01c-2.938-1.689-5.316-6.357-5.316-10.44V85.81c0-4.083,2.378-6.021,5.316-4.34l123.6,71.018c2.93,1.681,5.308,6.357,5.308,10.433V357.831C279.139,361.914,276.761,363.852,273.831,362.163Z" transform="translate(77.135 46.716)"/>
    <path id="Path_1641" data-name="Path 1641" class="cls-3" d="M172.22,122.886l-38.119-21.9c-2.93-1.689-5.308-6.365-5.308-10.44V76.537c0-4.075,2.378-6.013,5.308-4.332L172.22,94.111c2.93,1.681,5.308,6.357,5.308,10.432v14.011C177.529,122.63,175.151,124.568,172.22,122.886Z" transform="translate(-35.845 -18.199)"/>
    <path id="Path_1642" data-name="Path 1642" class="cls-3" d="M198.674,143.923,134.1,106.829c-2.93-1.689-5.308-6.357-5.308-10.441v-14c0-4.083,2.378-6.021,5.308-4.332l64.573,37.094c2.93,1.689,5.308,6.357,5.308,10.44v14C203.982,143.675,201.6,145.612,198.674,143.923Z" transform="translate(-35.845 22.743)"/>
    <path id="Path_1643" data-name="Path 1643" class="cls-3" d="M198.674,149.773l-64.573-37.1c-2.93-1.681-5.308-6.357-5.308-10.433V88.227c0-4.075,2.378-6.021,5.308-4.332l64.573,37.094c2.93,1.689,5.308,6.365,5.308,10.44v14.011C203.982,149.517,201.6,151.454,198.674,149.773Z" transform="translate(-35.845 63.683)"/>
    <path id="Path_1644" data-name="Path 1644" class="cls-3" d="M187.065,245.323,122.5,208.229c-2.938-1.689-5.316-6.357-5.316-10.44V90.213c0-4.075,2.378-6.013,5.316-4.332l64.565,37.1c2.938,1.681,5.316,6.357,5.316,10.432V240.992C192.381,245.075,190,247.012,187.065,245.323Z" transform="translate(-117.184 77.622)"/>
    <path id="Path_1645" data-name="Path 1645" class="cls-3" d="M172.22,143.228,134.1,121.33c-2.93-1.689-5.308-6.357-5.308-10.441v-14c0-4.083,2.378-6.021,5.308-4.331l38.119,21.9c2.93,1.681,5.308,6.357,5.308,10.433V138.9C177.529,142.972,175.151,144.918,172.22,143.228Z" transform="translate(-35.845 124.351)"/>
    <path id="Path_1646" data-name="Path 1646" class="cls-3" d="M198.674,164.275l-64.573-37.1c-2.93-1.681-5.308-6.357-5.308-10.441v-14c0-4.075,2.378-6.021,5.308-4.332l64.573,37.094c2.93,1.689,5.308,6.365,5.308,10.441v14.011C203.982,164.019,201.6,165.956,198.674,164.275Z" transform="translate(-35.845 165.291)"/>
    <path id="Path_1647" data-name="Path 1647" class="cls-3" d="M198.674,170.115l-64.573-37.1c-2.93-1.681-5.308-6.357-5.308-10.433V108.569c0-4.075,2.378-6.013,5.308-4.332l64.573,37.1c2.93,1.681,5.308,6.357,5.308,10.432v14.011C203.982,169.859,201.6,171.8,198.674,170.115Z" transform="translate(-35.845 206.234)"/>
    <path id="Path_1648" data-name="Path 1648" class="cls-3" d="M237.97,187.243l-87.735-50.409c-2.938-1.681-5.316-6.357-5.316-10.433v-7.79c0-4.075,2.378-6.013,5.316-4.332l87.735,50.409c2.931,1.689,5.316,6.357,5.316,10.441v7.782C243.286,186.994,240.9,188.932,237.97,187.243Z" transform="translate(77.135 276.593)"/>
    <path id="Path_1649" data-name="Path 1649" class="cls-3" d="M237.97,183.549l-87.735-50.409c-2.938-1.689-5.316-6.357-5.316-10.44v-7.782c0-4.083,2.378-6.021,5.316-4.331l87.735,50.409c2.931,1.681,5.316,6.357,5.316,10.432v7.79C243.286,183.292,240.9,185.23,237.97,183.549Z" transform="translate(77.135 250.679)"/>
    <path id="Path_1650" data-name="Path 1650" class="cls-7" d="M185.926,165.384,155.693,148.01c-2.706-1.553-4.892-5.861-4.892-9.624V96.376c0-3.763,2.186-5.548,4.892-4l30.233,17.366c2.706,1.553,4.9,5.869,4.9,9.624v42.018C190.826,165.152,188.632,166.937,185.926,165.384Z" transform="translate(118.354 123.477)"/>
    <path id="Path_1651" data-name="Path 1651" class="cls-8" d="M192.86,109.161,160.746,90.706a3.083,3.083,0,0,0-4.083,1.3l-5.477,8.671c-1.753,2.786-1.673,6.3.408,7.5l50.417,28.968c2.082,1.193,2.154-2.242.4-7.038l-5.468-14.964C195.974,112.5,194.181,109.921,192.86,109.161Z" transform="translate(112.365 113.246)"/>
    <path id="Path_1652" data-name="Path 1652" class="cls-3" d="M165.348,129.416l-9.7-5.573c-1.866-1.073-3.371-4.043-3.371-6.637V98.919c0-2.594,1.505-3.827,3.371-2.754l9.7,5.581c1.866,1.065,3.379,4.035,3.379,6.629v18.287C168.726,129.256,167.213,130.489,165.348,129.416Z" transform="translate(128.668 151.206)"/>
    <path id="Path_1653" data-name="Path 1653" class="cls-9" d="M242.07,157.277c0,3.531-2.106,5.252-4.652,3.787l-85.093-48.888c-2.546-1.457-4.58-5.565-4.58-9.1s2.034-5.292,4.58-3.835l85.093,48.888C239.964,149.591,242.07,153.738,242.07,157.277Z" transform="translate(96.942 171.857)"/>
    <path id="Path_1654" data-name="Path 1654" class="cls-10" d="M221.493,145.452c0,3.531-2.114,5.252-4.66,3.787l-64.509-37.062c-2.546-1.457-4.58-5.565-4.58-9.1s2.034-5.292,4.58-3.835l64.509,37.07C219.379,137.765,221.493,141.913,221.493,145.452Z" transform="translate(96.942 171.857)"/>
    <path id="Path_1655" data-name="Path 1655" class="cls-11" d="M242.07,160c0,3.539-2.106,5.252-4.652,3.8l-85.093-48.9c-2.546-1.457-4.58-5.556-4.58-9.1,0-3.643,2.034-5.3,4.58-3.835l85.093,48.888C239.964,152.314,242.07,156.357,242.07,160Z" transform="translate(96.942 190.863)"/>
    <path id="Path_1656" data-name="Path 1656" class="cls-12" d="M197.273,134.259c0,3.539-2.114,5.252-4.652,3.8l-40.3-23.155c-2.546-1.457-4.58-5.556-4.58-9.1,0-3.643,2.034-5.3,4.58-3.835l40.3,23.147C195.16,126.581,197.273,130.616,197.273,134.259Z" transform="translate(96.942 190.863)"/>
    <path id="Path_1657" data-name="Path 1657" class="cls-9" d="M242.07,162.714c0,3.539-2.106,5.26-4.652,3.8l-85.093-48.888c-2.546-1.465-4.58-5.565-4.58-9.1,0-3.643,2.034-5.3,4.58-3.835l85.093,48.888C239.964,155.036,242.07,159.079,242.07,162.714Z" transform="translate(96.942 209.879)"/>
    <path id="Path_1658" data-name="Path 1658" class="cls-13" d="M213.783,146.461c0,3.539-2.034,5.3-4.652,3.8l-56.806-32.635c-2.546-1.465-4.58-5.565-4.58-9.1,0-3.643,2.034-5.3,4.58-3.835l56.806,32.635C211.749,138.823,213.783,142.818,213.783,146.461Z" transform="translate(96.942 209.879)"/>
  </g>
  <path id="Path_1659" data-name="Path 1659" class="cls-3" d="M273.221,140.285,176.735,84.847c-7.758-4.46-25.357,2.538-25.357,13.323s17.6,21.249,25.357,25.709l85.173,59.5c7.75,4.46,25.357-4.74,25.357-15.517S280.98,144.736,273.221,140.285Z" transform="translate(647.619 181.664)"/>
  <g id="Group_3095" data-name="Group 3095" transform="translate(798.997 268.973)">
    <path id="Path_1660" data-name="Path 1660" class="cls-14" d="M261.908,180.035,165.421,124.6c-7.758-4.452-14.043-16.806-14.043-27.582h0c0-10.777,6.285-15.9,14.043-11.449L261.908,141c7.75,4.46,14.036,16.806,14.036,27.582h0C275.944,179.362,269.658,184.494,261.908,180.035Z" transform="translate(-151.378 -83.96)"/>
    <path id="Path_1661" data-name="Path 1661" class="cls-3" d="M176.2,98.059c-2.962-5.813-7.782-8.583-10.745-6.173s-2.962,9.119,0,14.932c2.714,5.332,6.974,8.055,9.944,6.621l7.4,14.524,1.441-1.177-7.4-14.524C179.108,109.429,178.916,103.392,176.2,98.059Zm-1.449,12.1c-2.162,1.769-5.693-.256-7.854-4.516s-2.17-9.151,0-10.921,5.693.264,7.854,4.516S176.923,108.4,174.753,110.157Z" transform="translate(-68.298 -34.524)"/>
  </g>
  <g id="Group_3101" data-name="Group 3101" transform="translate(0 367.324)">
    <path id="Path_1682" data-name="Path 1682" class="cls-15" d="M716.612,442.785l-124.96-6.606c-16.2-9.8-37.077-14.309-56.412-13.617l-67.319-67.473c31.163-56.917,19.466-143.647-24.535-171.265C361.736,132.6,196.758,108.912,126.63,152.4S74.125,331.783,156.553,381.578c74.528,45.022,183,53.394,254.967,22.473L484.435,448.1c-5.311,13.606,1.9,29.561,21.364,41.324l113.614,68.636c27.86,16.833,69.667,18.566,93.38,3.862C767.438,539.632,744.483,459.618,716.612,442.785ZM195.573,316.706c-60.417-36.5-72.773-48.3-21.375-80.179s142.747-28.848,202.758,8.383c28.76,17.853,81.112,50.1,29.715,81.968S255.979,353.2,195.573,316.706Z" transform="translate(-83 -112.264)"/>
    <g id="Group_3100" data-name="Group 3100" transform="translate(4.557)">
      <path id="Path_1683" data-name="Path 1683" class="cls-16" d="M273.341,219.113,233.9,243.573,111.26,169.485,150.7,145.026Z" transform="translate(194.279 40.573)"/>
      <path id="Path_1684" data-name="Path 1684" class="cls-17" d="M349.722,289.524h0c-23.713,14.7-65.52,12.97-93.391-3.862l-113.6-68.636c-27.871-16.832-31.24-42.4-7.527-57.1h0c23.7-14.7,65.519-12.97,93.38,3.862l113.614,68.636C370.066,249.253,373.434,274.82,349.722,289.524Z" transform="translate(275.515 89.531)"/>
      <g id="Group_3099" data-name="Group 3099">
        <path id="Path_1685" data-name="Path 1685" class="cls-18" d="M429.094,338.271c-70.139,43.486-194.254,38.361-276.682-11.445s-92.425-125.684-22.3-169.18,194.243-38.35,276.671,11.445S499.222,294.785,429.094,338.271Zm-259.038-156.5c-51.4,31.876-44.078,87.487,16.339,123.983s151.372,40.26,202.758,8.383,44.067-87.487-16.339-123.972S221.454,149.909,170.056,181.775Z" transform="translate(-83.415 -128.111)"/>
      </g>
    </g>
  </g>
  <g id="Group_3121" data-name="Group 3121" transform="translate(712.2 363.59)">
    <g id="Group_3114" data-name="Group 3114" transform="translate(21.024)">
      <path id="Path_1695" data-name="Path 1695" class="cls-19" d="M159.274,106.3c-1.185-2.314.945-8.319.945-8.319,1.473-1.906-1.737-3.467-3.275-.713l-3.931,10.545a15.986,15.986,0,0,0-2.842,4.932c.24,2.386,1.521,5.06,3.13,7.83l-1.065,7.006,9.175,1.409,1.065-7c1.938-3.155,3.779-5.509,3.387-9.231C164,109.549,160.379,108.436,159.274,106.3Z" transform="translate(-94.061 -95.778)"/>
      <path id="Path_1696" data-name="Path 1696" class="cls-20" d="M143.163,187.959s25.373-18.935,39.993-27.719l16.589-60.393q7.122-1.141,12.146,1.874c-5.452,33-7.526,64.741-15.228,73.572-13.2,12.842-21.137,29.664-37.975,29.2Z" transform="translate(-143.163 -69.463)"/>
    </g>
    <g id="Group_3115" data-name="Group 3115" transform="translate(95.592 69.446)">
      <path id="Path_1697" data-name="Path 1697" class="cls-21" d="M178.04,104.452l-25.563,36.2L179.4,155.694l33.835-30.753Z" transform="translate(-152.476 -104.452)"/>
    </g>
    <g id="Group_3116" data-name="Group 3116" transform="translate(28.794 233.814)">
      <path id="Path_1698" data-name="Path 1698" class="cls-19" d="M149.83,147.121l-3.36,12.415,13.349,3.785,1.371-12.07Z" transform="translate(-127.762 30.144)"/>
      <path id="Path_1699" data-name="Path 1699" class="cls-22" d="M149.311,148.06c-2.354,1.113-4.5,8.943-1.737,10.1,3.235,1.345.272,8.231,4.339,7.71,1.241-.432-.673-6.87,3.147-7.542,10.633-1.873,12.818,3.9,23.179-4.572,3.107-2.546-9.464-5.925-16.021-5.508,0,0,.593,3.651-3.683,3.4S152.594,147.4,149.311,148.06Z" transform="translate(-129.139 36.202)"/>
      <path id="Path_1700" data-name="Path 1700" class="cls-19" d="M166.043,302.854c.04,3.883,5.8,4.452,11.521,3.523l17.27-78.744c3.275-20.921-.568-50.849-10.889-82.387l-39.3-20.265c-4.251,39.712,19.047,64.236,22.594,94.381Z" transform="translate(-144.134 -124.981)"/>
      <path id="Path_1701" data-name="Path 1701" class="cls-23" d="M160.64,176.539a48.58,48.58,0,0,1-1.281,10.128c-.929,4.211-1.786,8.351-2.642,12.49a105.219,105.219,0,0,1-3.923,14.916l.785-53.74c-1.073-9.2-4-17.839-7.494-26.614a1.671,1.671,0,0,1,1.353-.288c3.066.36,5.637,9.28,7.062,9.28,2.93,6.774,2.57,14.556,3.931,21.834C159.215,168.548,160.5,172.472,160.64,176.539Z" transform="translate(-130.467 -65.953)"/>
    </g>
    <g id="Group_3117" data-name="Group 3117" transform="translate(0 207.345)">
      <path id="Path_1702" data-name="Path 1702" class="cls-19" d="M146.031,143.964,140.776,155.7l12.595,5.821,3.237-11.708Z" transform="translate(-138.867 34.493)"/>
      <path id="Path_1703" data-name="Path 1703" class="cls-22" d="M144.739,144.793c-2.5.737-5.837,8.135-3.291,9.7,2.978,1.834-1.017,8.175,3.082,8.295,1.3-.232.4-6.894,4.284-6.958,10.8-.192,12.058,5.853,23.6-.913,3.467-2.026-8.423-7.318-14.956-7.934,0,0,.008,3.7-4.171,2.786S148.078,144.649,144.739,144.793Z" transform="translate(-140.537 40.277)"/>
      <path id="Path_1704" data-name="Path 1704" class="cls-19" d="M141.434,300.7c-.56,3.851,5.044,5.308,10.833,5.284L181.611,230.9c6.485-20.161,7.366-50.321,2.09-83.084l-35.653-26.141c-10.392,38.559,8.791,66.414,7.6,96.743Z" transform="translate(-134.526 -121.675)"/>
      <path id="Path_1705" data-name="Path 1705" class="cls-23" d="M164.146,191.341,143.882,243.16c.5-2.354,1.353-5,1.569-6.926a96.3,96.3,0,0,1,1.353-11.057c1.649-7.782,5.781-14.852,8.351-22.338,5.925-17.558,2.93-36.614,1.93-55.1-.216-4.42-.288-8.991,1.425-13.059,1.641-4.139,5.637-7.566,10.064-7.35h.072C171,152.518,169.359,175.216,164.146,191.341Z" transform="translate(-117.102 -82.124)"/>
    </g>
    <path id="Path_1706" data-name="Path 1706" class="cls-24" d="M150.6,186.51c-9.287,24.364,42.346,28.271,54.717,25.645,12.138-2.57,16.558-5.276,15.957-16.277-.673-12.394-8.943-56.406-8.943-56.406s-69.5-28.639-70.874-7.974C139.243,165.053,150.556,169.584,150.6,186.51Z" transform="translate(-136.129 101.997)"/>
    <path id="Path_1707" data-name="Path 1707" class="cls-20" d="M140.926,227.927c1.994,16.541,75.261,20.6,75.261,5.885-15.677-52.979,11.313-51.338.16-99.1-12.874-19.976-37.078-28.5-54.861-23.187C133.784,130.4,160.238,169.8,140.926,227.927Z" transform="translate(-137.813 3.725)"/>
    <g id="Group_3118" data-name="Group 3118" transform="translate(40.784 94.276)">
      <path id="Path_1708" data-name="Path 1708" class="cls-19" d="M145.631,127.317a79.089,79.089,0,0,0,4.236-19.76l15.26,8.271c-3.531,8.343-2.642,10.393-2.442,17.494C157.1,133.242,147.761,132.225,145.631,127.317Z" transform="translate(-145.631 -107.525)"/>
      <path id="Path_1709" data-name="Path 1709" class="cls-23" d="M165.114,115.872c-2.082,4.852-2.618,7.622-2.7,10.465a14.5,14.5,0,0,1-3.227,0c-1.85-.152-3.931,0-5.236,1.393a12.138,12.138,0,0,1-1.77,2.154,8.232,8.232,0,0,1-2.85.921,7.4,7.4,0,0,1-3.7-3.467,80.653,80.653,0,0,0,4.235-19.784Z" transform="translate(-145.61 -107.553)"/>
    </g>
    <g id="Group_3119" data-name="Group 3119" transform="translate(29.094 69.52)">
      <path id="Path_1710" data-name="Path 1710" class="cls-19" d="M180.128,116.671c2.346,7.918,2.8,17.158-1.962,24.18-3.339,4.147-12.3,4.252-19.168,1.065a16.521,16.521,0,0,1-6.293-4.772l-8.535-28.335.344-.881,30.345-3.435A44.486,44.486,0,0,1,180.128,116.671Z" transform="translate(-144.171 -104.237)"/>
      <path id="Path_1711" data-name="Path 1711" class="cls-23" d="M178.856,122.372c-1.873-.064-4.211-.064-6-.056-1.561-.024-2.762-1.834-4.2-1.489a12.452,12.452,0,0,0-8.9,8.335c-.609,1.866-.729,3.9-1.417,5.7a10.4,10.4,0,0,1-5.228,5.669c-.152.016-.216.1-.36.2a16.454,16.454,0,0,1-5.148-5.989l-2.65-28.992c1.714,1.241,1.153-1.161,1.521-1.289l29.656,3.018A59.42,59.42,0,0,1,178.856,122.372Z" transform="translate(-138.664 -104.461)"/>
    </g>
    <g id="Group_3120" data-name="Group 3120" transform="translate(56.629 81.032)">
      <path id="Path_1712" data-name="Path 1712" class="cls-19" d="M175.006,109.9c-1.225-3.042-14.2-5.108-13.435-3.371,0,0,3.947,2.914,3.835,4.852-1.978,6.213-5.14-2.146-6.189-.681-1.393,1.345.961,7.686,1.633,10.7l-3.026,6.125,8.014,3.979,3.027-6.125c2.706-2.322,5.084-3.955,5.8-7.494C177.56,113.2,175.006,109.9,175.006,109.9Z" transform="translate(-76.045 -105.899)"/>
      <path id="Path_1713" data-name="Path 1713" class="cls-20" d="M161.1,135.833s20.353,13.235,35.645,20.7l31.586-48.151q6.882,1.045,10.617,5.276c-14.652,28.735-25.829,57.295-35.493,63.155-15.877,7.942-40.505-4.876-55.846-10.224Z" transform="translate(-147.61 -88.521)"/>
    </g>
    <path id="Path_1714" data-name="Path 1714" class="cls-25" d="M180.019,131.812c10.248.264,8.567-6.069,9.752-12.25s-2.594-17.358-11.441-16.077-12.954,2.93-22.01,6.389-9.4,10.392-12.2,18.591,3.059,10.128,6.453,14.276c4.652,5.677-9.576,17.879,9.039,20.008,8.367.961,25.389-16.517,20.793-18.991S171.74,131.588,180.019,131.812Z" transform="translate(-120.588 -42.491)"/>
    <path id="Path_1715" data-name="Path 1715" class="cls-23" d="M218.4,127.366a13.638,13.638,0,0,1-3.427,2.93c-8.919,4.42-20.481,2.354-31.682-1.217-2.5,21.129-13.923,30.617-2.426,69.441,0,7.07-17.062,9.776-34.9,8.847a76.366,76.366,0,0,0,14.916-6.774c2.138-1.289,4.348-2.714,5.637-4.86,2.994-4.708.857-10.777-.216-16.269a41.853,41.853,0,0,1,1.786-22.554c1.641-4.275,4-8.343,5.493-12.7a35.011,35.011,0,0,0,1.145-18.2,34.177,34.177,0,0,0-4.139-10.993,57.43,57.43,0,0,0,46.886,12.562C217.762,127.51,218.115,127.438,218.4,127.366Z" transform="translate(-102.486 39.041)"/>
    <path id="Path_1716" data-name="Path 1716" class="cls-26" d="M169.375,112.162l-10.791-6.744-2.409,3.85,11.286,6.749Z" transform="translate(-30.967 -28.236)"/>
    <path id="Path_1717" data-name="Path 1717" class="cls-26" d="M174.193,114.861l-15.779-8.842-3.522,5.047,16.5,8.846Z" transform="translate(-39.961 -24.02)"/>
    <path id="Path_1718" data-name="Path 1718" class="cls-26" d="M173.578,115.935,157.8,107.093l-3.522,5.047,16.5,8.846Z" transform="translate(-44.27 -16.499)"/>
    <path id="Path_1719" data-name="Path 1719" class="cls-26" d="M172.963,117.007l-15.779-8.841-3.522,5.047,16.5,8.847Z" transform="translate(-48.579 -8.978)"/>
  </g>
</svg>
