<svg xmlns="http://www.w3.org/2000/svg" width="174.277" height="84.134" viewBox="0 0 174.277 84.134">
    <defs>
        <style>
            .cls-1,.cls-2,.cls-4,.cls-5,.cls-6,.cls-7{fill:#fff}.cls-1,.cls-4,.cls-5,.cls-6,.cls-7{stroke:#fff}.cls-1{stroke-width:.2px}.cls-3{fill:url(#linear-gradient)}.cls-4{stroke-width:.27px}.cls-5{stroke-width:.16px}.cls-6{stroke-width:.17px}.cls-7{stroke-width:.15px}
        </style>
        <linearGradient id="linear-gradient" x1=".011" x2="1.008" y1="39.57" y2="39.57" gradientUnits="objectBoundingBox">
            <stop offset="0" stop-color="#00acd8"/>
            <stop offset=".43" stop-color="#b0d136"/>
            <stop offset=".63" stop-color="#b0d136"/>
            <stop offset=".67" stop-color="#b4ce35"/>
            <stop offset=".72" stop-color="#c1ca31"/>
            <stop offset=".77" stop-color="#d4c22a"/>
            <stop offset=".82" stop-color="#ebb420"/>
            <stop offset=".85" stop-color="#faaa19"/>
            <stop offset=".96" stop-color="#f7941e"/>
        </linearGradient>
    </defs>
    <g id="quick_hire_LOGO" data-name="quick hire LOGO" transform="translate(-18.7 -9)">
        <g id="Layer_1-2" transform="translate(18.7 9)">
            <path id="Path_6827" d="M886.344 155.249V123H882.5v32.249z" class="cls-1" data-name="Path 6827" transform="translate(-780.349 -109.519)"/>
            <path id="Path_6828" d="M970.709 148.187a11.455 11.455 0 0 0 2.9 2.649 11.861 11.861 0 0 0 4.364 1.431 38.2 38.2 0 0 0 5.31.485 20.173 20.173 0 0 0 3.867-.237c1.206-.236 2.649-.236 4.1-.485l.721 2.164c-1.691.237-3.146.485-4.849.721a31.636 31.636 0 0 1-4.849.237 21.171 21.171 0 0 1-3.867-.237 17.87 17.87 0 0 1-3.631-.485 12.944 12.944 0 0 1-7-3.855c-1.443-1.691-2.176-4.092-2.176-7.462v-7.7a21.29 21.29 0 0 1 .485-4.328 7.547 7.547 0 0 1 1.455-3.134 6.335 6.335 0 0 1 2.176-2.164 17.261 17.261 0 0 1 2.9-1.679 13.292 13.292 0 0 1 3.631-.97 28.352 28.352 0 0 1 4.588-.237 37.868 37.868 0 0 1 5.31.485 15.5 15.5 0 0 1 5.073 1.443c-.237.485-.485.721-.485.97-.237.237-.237.721-.485.958-1.455-.237-2.9-.721-4.589-.958a28.108 28.108 0 0 0-4.34-.237 17.012 17.012 0 0 0-3.382.237 15.459 15.459 0 0 0-4.1 1.206 12.566 12.566 0 0 0-3.382 2.886 8.619 8.619 0 0 0-1.455 5.3v8.881a13.5 13.5 0 0 0 1.71 4.115z" class="cls-1" data-name="Path 6828" transform="translate(-853.621 -109.422)"/>
            <path id="Path_6829" d="M1250.4 41.75c-.236-.237-.485-.237-.97 0l-3.867 2.649v17.089h-3.863V17.2h3.631l.236 22.611c0 .237.237.485.721.237 2.661-1.679 5.073-3.37 7.971-5.05l7.959-5.026h5.31l-14.014 9.13c-.236.237-.236.237-.236.485 2.9 3.607 5.795 7.226 8.929 10.832 2.9 3.607 6.031 7.226 8.94 11.069h-4.588z" class="cls-1" data-name="Path 6829" transform="translate(-1097.07 -16.23)"/>
            <path id="Path_6830" d="M574.672 155.734c-4.849 0-8.455-.958-10.868-3.134-2.661-2.424-4.1-6.256-4.1-11.306v-18.046h3.843v18.046c0 4.328 1.455 7.462 4.1 8.881 1.691.97 4.589 1.206 8.692 1.206 3.382 0 6.031-.721 7.734-1.928 2.176-1.679 3.382-4.328 3.382-8.42V123h3.867v18.046c0 5.3-1.455 9.141-4.1 11.305-2.424 2.164-6.031 3.288-10.868 3.288z" class="cls-2" data-name="Path 6830" transform="translate(-495.722 -109.519)"/>
            <path id="Path_6831" d="M76.647 37.879a28.973 28.973 0 1 0-28.974 28.867H49.6a10.647 10.647 0 0 0 3.631 2.886A17.019 17.019 0 0 0 60 70.837h3.11v-3.37h-2.665a16.262 16.262 0 0 1-3.631-.485 4.384 4.384 0 0 1-1.939-1.206 28.682 28.682 0 0 0 21.772-27.897zm-23.912 24.55c0-.237-.237-.721-.237-.958v-2.649H47.91v4.092h-.485a25.035 25.035 0 1 1 25.118-25.035 24.58 24.58 0 0 1-19.808 24.55z" class="cls-2" data-name="Path 6831" transform="translate(-18.7 -9)"/>
            <path id="Path_6832" d="M126.766 105.413a12.827 12.827 0 0 1 12.8 11.554h5.061a18.2 18.2 0 0 0-36.223 0h5.073c1.451-6.492 6.761-11.554 13.289-11.554z" class="cls-3" data-name="Path 6832" transform="translate(-97.792 -89.768)"/>
            <path id="Path_6833" d="M250.846 163.7c-.237 0-.237 0-.485.237l-3.146 1.218-10.856 4.328c-1.206.485-2.661 1.206-4.1 1.679a3.817 3.817 0 0 0-1.928 2.424v.237a3.915 3.915 0 0 0 .485 2.886 3.846 3.846 0 0 0 2.424 1.928 4.841 4.841 0 0 0 3.146-.485 5.011 5.011 0 0 0 1.206-.958l13.044-11.554.485-.237.236-.236c.237-.237.237-.485 0-.485-.026-.982-.262-.982-.511-.982z" class="cls-2" data-name="Path 6833" transform="translate(-205.222 -145.405)"/>
            <path id="Path_6834" d="M510.521 468v-17.085H491.2V468h-2.9v-33.7h2.9v13.954h19.323V434.3h2.9v33.692h-2.9z" class="cls-4" data-name="Path 6834" transform="translate(-432.766 -384.005)"/>
            <path id="Path_6835" d="M752.834 523.553V497.3H749.7v26.241h3.134z" class="cls-5" data-name="Path 6835" transform="translate(-663.253 -439.555)"/>
            <path id="Path_6836" d="M847.241 499.724a7.57 7.57 0 0 0-2.661-.485 20.116 20.116 0 0 0-3.855.485c-1.206.237-2.176.721-3.146.958a5.236 5.236 0 0 0-2.176 1.679 3.183 3.183 0 0 0-.721 1.928V523.3H831.3v-26h2.661l.237 1.928c0 .485.237.721.721.485a17.077 17.077 0 0 1 4.352-1.928 13.316 13.316 0 0 1 4.34-.485 11.907 11.907 0 0 1 4.1.485z" class="cls-6" data-name="Path 6836" transform="translate(-735.203 -439.554)"/>
            <path id="Path_6837" d="M1003.386 497.079a7.006 7.006 0 0 1 2.9 3.134 9.443 9.443 0 0 1 .721 3.607v6.019l-19.56 1.206v3.37a4.465 4.465 0 0 0 2.164 4.092 11.68 11.68 0 0 0 5.31 1.206 25.535 25.535 0 0 0 4.34-.485 17.889 17.889 0 0 0 4.849-1.443 1.771 1.771 0 0 1 .485.958c.236.237.236.485.485.97a18.285 18.285 0 0 1-5.073 1.679 22.1 22.1 0 0 1-5.558.473 16.064 16.064 0 0 1-5.073-.721 5.756 5.756 0 0 1-3.631-2.424 6.767 6.767 0 0 1-1.454-4.328v-11.057a8.8 8.8 0 0 1 .485-2.649 9.931 9.931 0 0 1 1.206-2.164 5.739 5.739 0 0 1 1.928-1.443 8.518 8.518 0 0 1 2.176-.958 7.375 7.375 0 0 1 2.424-.485c.97 0 1.691-.236 2.661-.236a26.775 26.775 0 0 1 4.34.485 8.262 8.262 0 0 1 3.875 1.194zm.485 6.268a4.379 4.379 0 0 0-.969-3.134 5.708 5.708 0 0 0-2.176-1.928 11.718 11.718 0 0 0-2.661-.958 8.8 8.8 0 0 0-2.424-.237 12.571 12.571 0 0 0-2.9.237 8.854 8.854 0 0 0-2.661.958 7.883 7.883 0 0 0-2.176 1.928 5.427 5.427 0 0 0-.721 3.134v5.535h.485l16.178-.97z" class="cls-5" data-name="Path 6837" transform="translate(-870.097 -437.879)"/>
            <circle id="Ellipse_10" cx="1.727" cy="1.727" r="1.727" class="cls-7" data-name="Ellipse 10" transform="translate(86.364 51.123)"/>
            <circle id="Ellipse_11" cx="1.727" cy="1.727" r="1.727" class="cls-7" data-name="Ellipse 11" transform="translate(102.577 5.641)"/>
        </g>
    </g>
</svg>
