<svg xmlns="http://www.w3.org/2000/svg" xmlns:xlink="http://www.w3.org/1999/xlink" width="470.339" height="486.875" viewBox="0 0 470.339 486.875">
  <defs>
    <style>
      .cls-1 {
        fill: #12033e;
      }

      .cls-2 {
        fill: #fff;
      }

      .cls-3, .cls-9 {
        fill: url(#linear-gradient);
      }

      .cls-4 {
        fill: #c47acc;
      }

      .cls-14, .cls-5 {
        mix-blend-mode: soft-light;
        isolation: isolate;
      }

      .cls-5 {
        fill: url(#linear-gradient-2);
      }

      .cls-6 {
        fill: url(#linear-gradient-3);
      }

      .cls-7 {
        fill: #98509e;
      }

      .cls-8, .cls-9 {
        opacity: 0.5;
      }

      .cls-10, .cls-8 {
        fill: url(#linear-gradient-5);
      }

      .cls-10 {
        opacity: 0.3;
      }

      .cls-11 {
        fill: #2e2c73;
      }

      .cls-12 {
        fill: #492c6f;
      }

      .cls-13 {
        fill: #8e6b93;
      }

      .cls-14 {
        fill: url(#linear-gradient-8);
      }

      .cls-15 {
        fill: url(#linear-gradient-9);
      }

      .cls-16 {
        opacity: 0.1;
      }

      .cls-17 {
        fill: #e8b685;
      }

      .cls-18 {
        fill: #e2e1f9;
      }

      .cls-19 {
        fill: #e8e5ff;
      }

      .cls-20 {
        fill: #9947a5;
      }

      .cls-21 {
        fill: #dda97a;
      }

      .cls-22 {
        fill: #fcf1d1;
      }

      .cls-23 {
        fill: #34314f;
      }

      .cls-24 {
        fill: #3f2666;
      }

      .cls-25 {
        fill: #f2f2f2;
      }
    </style>
    <linearGradient id="linear-gradient" y1="0.5" x2="1" y2="0.5" gradientUnits="objectBoundingBox">
      <stop offset="0" stop-color="#2e2c73"/>
      <stop offset="1" stop-color="#66c"/>
    </linearGradient>
    <linearGradient id="linear-gradient-2" y1="0.5" x2="1" y2="0.5" gradientUnits="objectBoundingBox">
      <stop offset="0" stop-color="#fff"/>
      <stop offset="1"/>
    </linearGradient>
    <linearGradient id="linear-gradient-3" x1="0.525" y1="0.572" x2="0.744" y2="1.308" gradientUnits="objectBoundingBox">
      <stop offset="0" stop-color="#2e2c73"/>
      <stop offset="0.203" stop-color="#302e77"/>
      <stop offset="0.419" stop-color="#383784"/>
      <stop offset="0.643" stop-color="#464599"/>
      <stop offset="0.869" stop-color="#5858b7"/>
      <stop offset="1" stop-color="#66c"/>
    </linearGradient>
    <linearGradient id="linear-gradient-5" x1="0" y1="0.5" x2="1" y2="0.5" xlink:href="#linear-gradient-3"/>
    <linearGradient id="linear-gradient-8" x1="7.505" y1="-2.935" x2="8.496" y2="-2.935" xlink:href="#linear-gradient-2"/>
    <linearGradient id="linear-gradient-9" y1="0.5" x2="1" y2="0.5" gradientUnits="objectBoundingBox">
      <stop offset="0" stop-color="#db9ae5"/>
      <stop offset="1" stop-color="#98509e"/>
    </linearGradient>
  </defs>
  <g id="Time_Hunter_ENG_VECTOR" data-name="Time Hunter ENG VECTOR" transform="translate(-1131.789 -11560.713)">
    <g id="Group_3377" data-name="Group 3377" transform="translate(1131.789 11560.713)">
      <g id="Group_3350" data-name="Group 3350" transform="translate(0 308.678)">
        <path id="Path_2554" data-name="Path 2554" class="cls-1" d="M167.725,179.4,155.44,191.44l-12.926,12.85-17.025,16.7-11.16,11-6.1,6.025a7.106,7.106,0,0,1-9.8.08l-7.145-6.825-.244-.24-5.78-5.46-34.77-33.165L37.964,180.44l12.365-12.125,28.345-27.941.4-.324,18.466-18.226a7.011,7.011,0,0,1,9.719-.08l15.816,15.1,3.294,3.13,5.54,5.3h.08l14.695,14.055,8.59,8.19Z" transform="translate(-37.964 -119.827)"/>
        <path id="Path_2555" data-name="Path 2555" class="cls-2" d="M146.769,232.5a10.421,10.421,0,0,1-10.36,10.52l-84.151.641a10.45,10.45,0,0,1-10.52-10.276l-.24-31.8-.164-24.17-.08-5.06-.08-19.03-.16-17.265a10.4,10.4,0,0,1,10.28-10.516l18.226-.16h.324l44.161-.4h3.214l8.67-.08,9.555-.08a10.471,10.471,0,0,1,10.52,10.36v4.816l.16,12.529.16,19.03v4.9l.08,4.9Z" transform="translate(-28.809 -104.836)"/>
        <path id="Path_2556" data-name="Path 2556" class="cls-3" d="M168.369,208.023a13.505,13.505,0,0,1-13.33,13.57l-102.861.8a13.4,13.4,0,0,1-13.57-13.326l-.324-38.785-.32-34.53,60.465,33.565a7.106,7.106,0,0,0,9.8-.08l59.5-34.53.164,15.259Z" transform="translate(-37.964 -75.14)"/>
        <rect id="Rectangle_667" data-name="Rectangle 667" class="cls-4" width="22.735" height="7.957" rx="0.905" transform="translate(27.199 40.255) rotate(-0.465)"/>
        <path id="Path_2557" data-name="Path 2557" class="cls-4" d="M107.364,141.435l-58.556.476a3.979,3.979,0,0,1-4.011-3.947h0a3.976,3.976,0,0,1,3.947-4.011l58.556-.476a3.981,3.981,0,0,1,4.011,3.947h0A3.981,3.981,0,0,1,107.364,141.435Z" transform="translate(-17.445 -78.836)"/>
        <path id="Path_2558" data-name="Path 2558" class="cls-4" d="M107.394,145.156l-58.556.472a3.978,3.978,0,0,1-4.011-3.943h0a3.979,3.979,0,0,1,3.947-4.011l58.556-.476a3.979,3.979,0,0,1,4.011,3.947h0A3.982,3.982,0,0,1,107.394,145.156Z" transform="translate(-17.355 -67.662)"/>
        <path id="Path_2559" data-name="Path 2559" class="cls-5" d="M168.129,196.772a13.505,13.505,0,0,1-13.33,13.57l-102.861.8a13.4,13.4,0,0,1-13.57-13.326l-.324-38.785c5.944-.24,12.289,1.285,17.909,3.291,11.965,4.175,23.285,10.12,35.651,13.01,12.285,2.89,26.34,2.33,36.215-5.54,6.02-4.74,9.875-11.565,14.455-17.665,4.5-6.1,10.356-11.965,17.825-13.33a23.792,23.792,0,0,1,7.55-.08Z" transform="translate(-37.724 -63.888)"/>
      </g>
      <g id="Group_3351" data-name="Group 3351" transform="translate(102.396)">
        <path id="Path_2560" data-name="Path 2560" class="cls-6" d="M310.028,498.859,84.208,487.51c-11.124,0-18.634-9.019-16.773-20.143l53.988-395.9c1.861-11.124,26.039-28.757,37.164-28.757h235.88c11.124,0,18.638,9.019,16.776,20.143L343.6,467.367C341.744,478.492,321.153,498.859,310.028,498.859Z" transform="translate(-52.709 -42.715)"/>
        <path id="Path_2561" data-name="Path 2561" class="cls-3" d="M407.6,65.819,339.99,470.365c-1.605,9.555-9.715,17.585-19.11,19.591a20.175,20.175,0,0,1-4.419.48H80.625c-11.16,0-18.706-8.991-16.781-20.071l67.61-404.546a14.348,14.348,0,0,1,.8-3.21c.08-.32.16-.56.24-.8,3.455-9.231,12.685-16.136,22.485-16.136H390.82C401.98,45.668,409.446,54.659,407.6,65.819Z" transform="translate(-63.544 -33.847)"/>
        <path id="Path_2562" data-name="Path 2562" class="cls-2" d="M304.35,453.2H76.76c-6.113,0-10.24-4.956-9.219-11.072L131.1,62.058A13.618,13.618,0,0,1,144.018,50.99H371.6c6.113,0,10.24,4.956,9.219,11.068L317.271,442.126A13.625,13.625,0,0,1,304.35,453.2Z" transform="translate(-52.006 -17.865)"/>
        <path id="Path_2563" data-name="Path 2563" class="cls-2" d="M148.305,114.7h0a1.6,1.6,0,0,1-1.613-1.933l8.274-49.473a2.376,2.376,0,0,1,2.258-1.933h0a1.594,1.594,0,0,1,1.613,1.933l-8.27,49.473A2.384,2.384,0,0,1,148.305,114.7Z" transform="translate(186.068 13.276)"/>
        <path id="Path_2564" data-name="Path 2564" class="cls-2" d="M146.768,112.753h-.725a1.3,1.3,0,0,1-1.309-1.573l5.372-32.128a1.933,1.933,0,0,1,1.837-1.573h.721a1.3,1.3,0,0,1,1.313,1.573l-5.372,32.128A1.94,1.94,0,0,1,146.768,112.753Z" transform="translate(180.2 61.681)"/>
      </g>
      <g id="Group_3352" data-name="Group 3352" transform="translate(55.424 85.931)">
        <rect id="Rectangle_668" data-name="Rectangle 668" class="cls-7" width="168.626" height="107.542" rx="3.036" transform="translate(9.452 8.586)"/>
        <rect id="Rectangle_669" data-name="Rectangle 669" class="cls-2" width="168.626" height="107.519" rx="3.029"/>
        <path id="Path_2565" data-name="Path 2565" class="cls-8" d="M220.436,87.885V137.67A12.166,12.166,0,0,1,208.311,149.8H63.935A12.166,12.166,0,0,1,51.81,137.67v-31.88c26.1-13.57,38.22-10.035,54.2-1.125,18.47,10.28,25.775,10.28,36.535,2.97s24.09-43.44,38.3-34.846,15.9,27.541,30.515,19.751C214.571,90.855,217.626,89.17,220.436,87.885Z" transform="translate(-51.809 -42.274)"/>
        <path id="Path_2566" data-name="Path 2566" class="cls-9" d="M220.436,121.014v8.674a12.166,12.166,0,0,1-12.125,12.125H63.935A12.166,12.166,0,0,1,51.81,129.688V79.018c13.41-6.825,30.351-6.265,44.081.24a44.989,44.989,0,0,1,13.894,9.635c6.341,6.665,10.035,15.66,16.7,22a32.906,32.906,0,0,0,31.88,7.466c10.68-3.37,19.511-12.285,30.755-13.33,6.5-.64,13.006,1.609,18.546,4.9A46.939,46.939,0,0,1,220.436,121.014Z" transform="translate(-51.809 -34.292)"/>
        <path id="Path_2567" data-name="Path 2567" class="cls-10" d="M220.436,74.332V129.1a12.166,12.166,0,0,1-12.125,12.125H63.935A12.166,12.166,0,0,1,51.81,129.1V112.312c5.38,1.849,10.76,4.1,16.7,4.74,16.781,1.685,34.125-2.25,48.02-11.8A58.4,58.4,0,0,0,130.1,92.562c4.015-5.3,7.466-11.8,13.65-14.295,6.345-2.49,13.57.08,19.43,3.615s11.324,7.95,17.989,9.555c6.5,1.605,13.41.16,19.511-2.73,6.024-2.97,11.24-7.229,16.3-11.565C218.106,76.177,219.231,75.217,220.436,74.332Z" transform="translate(-51.809 -33.701)"/>
        <path id="Path_2568" data-name="Path 2568" class="cls-11" d="M64.245,76.853a3.623,3.623,0,1,1-3.623-3.623A3.622,3.622,0,0,1,64.245,76.853Z" transform="translate(-36.223 -37.01)"/>
        <path id="Path_2569" data-name="Path 2569" class="cls-11" d="M81.577,77.955a3.625,3.625,0,1,1-3.623-3.623A3.624,3.624,0,0,1,81.577,77.955Z" transform="translate(15.813 -33.701)"/>
        <path id="Path_2570" data-name="Path 2570" class="cls-11" d="M93.179,84.5a3.623,3.623,0,1,1-3.623-3.623A3.622,3.622,0,0,1,93.179,84.5Z" transform="translate(50.665 -14.046)"/>
        <path id="Path_2571" data-name="Path 2571" class="cls-11" d="M89.1,74.195a3.623,3.623,0,1,1-3.623-3.623A3.622,3.622,0,0,1,89.1,74.195Z" transform="translate(38.404 -44.992)"/>
      </g>
      <g id="Group_3354" data-name="Group 3354" transform="translate(292.26 281.357)">
        <rect id="Rectangle_670" data-name="Rectangle 670" class="cls-7" width="168.626" height="107.542" rx="3.036" transform="translate(9.453 8.586)"/>
        <rect id="Rectangle_671" data-name="Rectangle 671" class="cls-2" width="168.626" height="107.519" rx="3.029"/>
        <g id="Group_3353" data-name="Group 3353" transform="translate(26.237 22.038)">
          <path id="Path_2572" data-name="Path 2572" class="cls-11" d="M131.419,129.6v32.36a5.108,5.108,0,0,1-5.06,5.14h-3.695a5.173,5.173,0,0,1-5.136-5.14V129.6a5.173,5.173,0,0,1,5.136-5.14h3.695A5.108,5.108,0,0,1,131.419,129.6Z" transform="translate(-117.529 -100.618)"/>
          <rect id="Rectangle_672" data-name="Rectangle 672" class="cls-4" width="13.891" height="63.275" rx="1.284" transform="translate(23.044 3.211)"/>
          <path id="Path_2573" data-name="Path 2573" class="cls-11" d="M142.853,127.679V167.5a5.108,5.108,0,0,1-5.06,5.14H134.1a5.105,5.105,0,0,1-5.056-5.14V127.679a5.036,5.036,0,0,1,5.056-5.06h3.695A5.04,5.04,0,0,1,142.853,127.679Z" transform="translate(-82.953 -106.159)"/>
          <path id="Path_2574" data-name="Path 2574" class="cls-4" d="M148.67,123.647v56.206a5.125,5.125,0,0,1-5.14,5.14H139.92a5.174,5.174,0,0,1-5.14-5.14V123.647a5.12,5.12,0,0,1,5.14-5.14h3.611A5.073,5.073,0,0,1,148.67,123.647Z" transform="translate(-65.725 -118.507)"/>
          <path id="Path_2575" data-name="Path 2575" class="cls-11" d="M154.427,132.914v19.11a5.177,5.177,0,0,1-5.14,5.14h-3.611a5.125,5.125,0,0,1-5.14-5.14v-19.11a5.075,5.075,0,0,1,5.14-5.14h3.611A5.125,5.125,0,0,1,154.427,132.914Z" transform="translate(-48.436 -90.678)"/>
          <rect id="Rectangle_673" data-name="Rectangle 673" class="cls-4" width="13.892" height="56.53" rx="1.284" transform="translate(115.065 9.956)"/>
        </g>
      </g>
      <g id="Group_3362" data-name="Group 3362" transform="translate(142.609 327.24)">
        <g id="Group_3356" data-name="Group 3356" transform="translate(97.905)">
          <g id="Group_3355" data-name="Group 3355" transform="translate(0 3.974)">
            <path id="Path_2576" data-name="Path 2576" class="cls-12" d="M99.513,134.862l-1.465-1.71,8.275-7.7h25.765l-.264,2.418h-24.8Z" transform="translate(-98.048 -125.457)"/>
          </g>
          <path id="Path_2577" data-name="Path 2577" class="cls-12" d="M118.919,134.223H107.571a2.35,2.35,0,0,1-2.33-2.718l.468-4.319a3.066,3.066,0,0,1,2.926-2.722h11.348a2.354,2.354,0,0,1,2.33,2.722l-.468,4.319A3.063,3.063,0,0,1,118.919,134.223Z" transform="translate(-76.498 -124.464)"/>
          <path id="Path_2578" data-name="Path 2578" class="cls-2" d="M110.244,126.428h-4.256l.142-1.295h4.255Z" transform="translate(-74.201 -122.454)"/>
          <path id="Path_2579" data-name="Path 2579" class="cls-2" d="M117.421,127.183H105.906l.141-1.295h11.515Z" transform="translate(-74.449 -120.187)"/>
        </g>
        <g id="Group_3358" data-name="Group 3358" transform="translate(0 16.26)">
          <g id="Group_3357" data-name="Group 3357" transform="translate(11.729 3.971)">
            <path id="Path_2580" data-name="Path 2580" class="cls-12" d="M107.3,138.923l1.839-1.71-6.594-7.7H76.784l-.264,2.418h24.8Z" transform="translate(-76.52 -129.518)"/>
          </g>
          <path id="Path_2581" data-name="Path 2581" class="cls-12" d="M75.94,138.285H87.285a3.06,3.06,0,0,0,2.926-2.722l.472-4.319a2.353,2.353,0,0,0-2.33-2.718H77.005a3.06,3.06,0,0,0-2.926,2.718l-.472,4.319A2.355,2.355,0,0,0,75.94,138.285Z" transform="translate(-73.59 -128.526)"/>
          <path id="Path_2582" data-name="Path 2582" class="cls-2" d="M76.085,130.49h4.255l.142-1.3H76.227Z" transform="translate(-66.096 -126.518)"/>
          <path id="Path_2583" data-name="Path 2583" class="cls-2" d="M74.189,131.245H85.7l.141-1.295H74.331Z" transform="translate(-71.789 -124.25)"/>
        </g>
        <g id="Group_3360" data-name="Group 3360" transform="translate(95.295 63.539)">
          <g id="Group_3359" data-name="Group 3359">
            <path id="Path_2584" data-name="Path 2584" class="cls-12" d="M99.234,140.337l-1.839,1.71,6.594,7.7h25.765l.264-2.418h-24.8Z" transform="translate(-97.396 -140.337)"/>
          </g>
          <path id="Path_2585" data-name="Path 2585" class="cls-12" d="M118.965,141.241H107.616a3.059,3.059,0,0,0-2.926,2.718l-.472,4.319A2.355,2.355,0,0,0,106.551,151H117.9a3.06,3.06,0,0,0,2.926-2.722l.472-4.319A2.353,2.353,0,0,0,118.965,141.241Z" transform="translate(-76.96 -137.622)"/>
          <path id="Path_2586" data-name="Path 2586" class="cls-2" d="M109.366,141.888H105.11l-.141,1.295h4.255Z" transform="translate(-74.654 -135.678)"/>
          <path id="Path_2587" data-name="Path 2587" class="cls-2" d="M116.5,142.686H104.981l-.141,1.295h11.515Z" transform="translate(-75.042 -133.281)"/>
        </g>
        <g id="Group_3361" data-name="Group 3361" transform="translate(38.72 4.547)">
          <path id="Path_2588" data-name="Path 2588" class="cls-11" d="M116.445,178.106,115.02,191.12c-18.386,0-31.92-14.407-31.756-32.908.02-1.269.084-2.578.228-3.887a42.1,42.1,0,0,1,13.242-26.035l7.89,9.211a27.09,27.09,0,0,0-8.6,16.825C94.593,167.462,103.711,178.106,116.445,178.106Z" transform="translate(-83.263 -117.525)"/>
          <path id="Path_2589" data-name="Path 2589" class="cls-13" d="M144.483,162.4H131.91a22.782,22.782,0,0,0-1.821-11.953,19.925,19.925,0,0,0-18.558-11.829,25.148,25.148,0,0,0-17.013,6.957l-7.89-9.211A38.981,38.981,0,0,1,112.952,125.6c16.212,0,28.633,11.216,31.223,26.608A36.677,36.677,0,0,1,144.483,162.4Z" transform="translate(-73.156 -125.6)"/>
          <path id="Path_2590" data-name="Path 2590" class="cls-4" d="M130.766,134.793c-2.222,20.343-19.955,36.8-39.569,36.8l1.425-13.014a24.727,24.727,0,0,0,13.294-4.055.047.047,0,0,0,.044-.04,27.318,27.318,0,0,0,12.233-19.687Z" transform="translate(-59.439 -97.994)"/>
        </g>
        <path id="Path_2591" data-name="Path 2591" class="cls-14" d="M154.589,143.76c-2.222,20.343-19.955,36.8-39.569,36.8-18.386,0-31.92-14.407-31.756-32.908a17.329,17.329,0,0,1,2.37,2.906,39.951,39.951,0,0,1,4.047,9.291c.925,2.782,1.837,5.648,3.695,7.818a15.647,15.647,0,0,0,4.571,3.4,26.054,26.054,0,0,0,17.9,1.925,25.533,25.533,0,0,0,8.743-4.015,20.123,20.123,0,0,0,5.148-5.484.047.047,0,0,0,.044-.04,27.318,27.318,0,0,0,12.233-19.687,22.782,22.782,0,0,0-1.821-11.953c1.937.737,3.671,1.881,5.628,2.414a13.457,13.457,0,0,0,8.458-.653A36.677,36.677,0,0,1,154.589,143.76Z" transform="translate(-44.542 -102.413)"/>
      </g>
      <g id="Group_3363" data-name="Group 3363" transform="translate(262.444 87.381)">
        <path id="Path_2592" data-name="Path 2592" class="cls-15" d="M176.439,68.315l-2.49,15.019a4.686,4.686,0,0,1-4.335,3.691h-59.1a3.08,3.08,0,0,1-3.13-3.691l2.49-15.019a4.537,4.537,0,0,1,4.335-3.771h59.1A3.149,3.149,0,0,1,176.439,68.315Z" transform="translate(-92.081 -64.544)"/>
        <path id="Path_2593" data-name="Path 2593" class="cls-15" d="M228.671,77.626l-1.765,10.44a4.548,4.548,0,0,1-4.339,3.775H109.105a3.064,3.064,0,0,1-3.05-3.775l1.685-10.44a4.608,4.608,0,0,1,4.335-3.775H225.54A3.151,3.151,0,0,1,228.671,77.626Z" transform="translate(-96.132 -36.595)"/>
        <path id="Path_2594" data-name="Path 2594" class="cls-15" d="M207.255,84.988l-1.765,10.52a4.549,4.549,0,0,1-4.335,3.695H107.929a3.122,3.122,0,0,1-3.134-3.695l.16-1.125,1.609-9.395a4.463,4.463,0,0,1,4.335-3.695h93.225A3.049,3.049,0,0,1,207.255,84.988Z" transform="translate(-99.851 -14.247)"/>
        <path id="Path_2595" data-name="Path 2595" class="cls-15" d="M226.189,92.41,224.5,102.93a4.6,4.6,0,0,1-4.335,3.695H106.7a3.049,3.049,0,0,1-3.13-3.695l1.765-10.52a4.549,4.549,0,0,1,4.335-3.695H223.135A3.069,3.069,0,0,1,226.189,92.41Z" transform="translate(-103.526 8.041)"/>
      </g>
      <path id="Path_2596" data-name="Path 2596" class="cls-16" d="M114.852,139.81l-9.555.08-.24.08a3.751,3.751,0,0,0-2.005,2.41l-.8,2.89h-.08l-.48-.16a2.263,2.263,0,0,0-1.769,0l-4.335,1.845a2.689,2.689,0,0,0-.965-1.2,1.563,1.563,0,0,0-.56-.08c-.24-2.005-.484-3.935-.644-5.7,0-1.125-.08-2.166-.08-3.13l-15.816-15.1a7.011,7.011,0,0,0-9.719.08L49.331,140.05c0,.08-.08.16-.08.324-.324,1.281-.644,2.566-.965,3.931h.08c1.2,6.989,3.13,12.125,5.62,15.66a17.617,17.617,0,0,0,4.175,4.255c4.335,3.05,9.475,3.374,14.855,2.089l-2.89,8.43-2.73,7.95-2.41,6.905-2.73,8.03-3.695,10.76L53.426,223.4a22.444,22.444,0,0,0,2.406,1.765c-.08.164-.24.244-.32.4-.881.881-1.685,1.845-2.65,2.97,0,.08,0,.08-.08.16a.28.28,0,0,0-.08-.16v-.08h-.08c-2.73,1.125-5.78,4.575-4.415,6.425,1.285,1.925,15.74,11.16,19.671,10.68,2.33-.324-4.175-11-7.145-12.369a9.609,9.609,0,0,1,.8-1.925c-.08-.08-.08-.16,0-.16a18.806,18.806,0,0,1,2.005-3.775c.8.16,1.525.24,2.49.4l5.94-12.045,9.075-18.226,3.935-8.03,3.455-6.905,3.935-7.95.32-.645c.56.164,1.125.4,1.685.564.16.08.4.16.56.24l.164,7.71.08,6.905.16,7.95.08,6.745.32,16.941.08,6.5.16,7.47a12.715,12.715,0,0,0,2.81.881c-.48,1.365-1.2,2.73-1.685,4.419,0-.08-.16-.164-.16-.244-2.25,1.849-3.935,6.345-2.01,7.63,1.849,1.285,18.55,5.14,22.084,3.29,2.086-1.121-7.63-8.911-10.84-9.231a21.615,21.615,0,0,1,.56-6.425c.885-.16,1.605-.24,2.57-.48l2.89-26.019.564-4.5,1.2-11,2.486-22a19.217,19.217,0,0,0-2.65-10.356l3.134-1.605,8.27-4.179c.08,0,.08-.08.16-.16V150.17A10.471,10.471,0,0,0,114.852,139.81Z" transform="translate(-8.217 188.851)"/>
      <path id="Path_2597" data-name="Path 2597" class="cls-16" d="M184.276,299.542h-16.62l-3.535-6.581-1.365-2.41.08,2.41.16,6.581h-16.54l.24-7.385.4-13.89.564-18.07c-3.615-10.276-6.345-22.481-8.19-36.855-1.689-.4-2.65-.965-2.41-1.845,9.075-23.53.56-33.4-1.125-45.934-5.38.084-10.76-.32-15.82-2.326-5.056-2.41-11.721-7.87-18.95-13.974-3.775-3.21-7.79-6.581-11.8-9.8l.4-.56a24.289,24.289,0,0,1-3.214-.725c-1.605-.721-2.326-5.86-2.326-8.911a6.671,6.671,0,0,1,.16-2.009l-8.674-18.47a2.007,2.007,0,0,1,.965-2.81L94.1,109.4a2.2,2.2,0,0,1,2.81,1.285L108.636,135.5a1.977,1.977,0,0,1-.965,2.73l-15.1,5.78a.807.807,0,0,0,.08.24v.08l.16-.16,31.64,17.505,15.816-6.425h.08a12.953,12.953,0,0,1,2.09-1.605,14.876,14.876,0,0,1,3.455-10.035,5.648,5.648,0,0,1-3.214-1.2c-.965-2.89-.965-6.825-.48-10.6-6.745-3.535-4.335-11-2.49-12.93,4.1-4.015,9.155,1.125,12.846-.8,5.06-2.49,11.965,3.13,13.49,8.831,1.285,5.06.08,7.149-1.525,11-1.125,2.566.4,5.3,4.015,8.59a8.474,8.474,0,0,1,2.25,1.925c1.285.965,2.57,1.929,4.175,3.054,5.78,4.015,6.345,11.481,3.455,17.345,2.005,11.881,2.57,26.736,3.691,40.55.08,2.086.244,4.1.484,6.1a8.9,8.9,0,0,1-1.525,1.445c-.885,11.08-7.79,23.289-15.179,36.215-.32,2.81-.64,5.62-1.041,8.43,0,.4-.084.725-.084,1.045l8.274,15.66,8.19,15.576Z" transform="translate(74.681 157.046)"/>
      <g id="Group_3368" data-name="Group 3368" transform="translate(140.331 262.303)">
        <g id="Group_3364" data-name="Group 3364">
          <path id="Path_2598" data-name="Path 2598" class="cls-1" d="M105.207,137.252,87.8,143.9a2.361,2.361,0,0,1-2.874-1.3L73.247,117.789a1.969,1.969,0,0,1,.961-2.766l17.409-6.653a2.36,2.36,0,0,1,2.874,1.3l11.677,24.814A1.969,1.969,0,0,1,105.207,137.252Z" transform="translate(-73.02 -108.242)"/>
          <path id="Path_2599" data-name="Path 2599" class="cls-2" d="M83.62,115.6l-6.759,2.583-2.634-5.6,6.759-2.583Z" transform="translate(-69.397 -102.943)"/>
          <path id="Path_2600" data-name="Path 2600" class="cls-2" d="M89.307,113.607l-13.1,5.006-1.035-2.2,13.1-5.006Z" transform="translate(-66.561 -98.734)"/>
          <path id="Path_2601" data-name="Path 2601" class="cls-2" d="M88.5,114.784l-11.8,4.509-1.035-2.2,11.8-4.509Z" transform="translate(-65.073 -95.199)"/>
          <path id="Path_2602" data-name="Path 2602" class="cls-2" d="M90.3,115.713l-13.1,5.006-1.035-2.2,13.1-5.006Z" transform="translate(-63.585 -92.411)"/>
        </g>
        <path id="Path_2603" data-name="Path 2603" class="cls-17" d="M83.658,122.362a41.843,41.843,0,0,0-2.454-4.083c-1.253-1.781-1.253,4-3.523.729-.957-1.381-2.038-4.579-2.306-3.643-.54,1.869.156,9.939,2.206,10.928a13.162,13.162,0,0,0,3.547.713A4.234,4.234,0,0,0,83.658,122.362Z" transform="translate(-66.475 -87.359)"/>
        <g id="Group_3365" data-name="Group 3365" transform="translate(58.193 196.271)">
          <path id="Path_2604" data-name="Path 2604" class="cls-17" d="M98.288,158.674l-.717,7.277c-3.042.9-5.392,2.65-8.158,3.755,4.756,2.418,10.9,1.445,17.789-1.313,1.133-1.9-3.571-4.972-.765-11.12Z" transform="translate(-81.987 -157.273)"/>
          <path id="Path_2605" data-name="Path 2605" class="cls-13" d="M99.379,169.352c3.595-.148,3.294-4.119,5.84-4.119,2.474,0,3.971,1.721,3.971,5.544.076,2.7.524,2.846.524,2.846a1.374,1.374,0,0,0,1.873-.148s-.3-4.647,1.2-5.844c.9-.749,1.8-3.222,1.869-5.02a2.071,2.071,0,0,0-1.8-2.774c-4.267-1.049-11.909,5.1-17.153,2.326-.076,0-.076-.076-.152,0-1.125-.452-3.747.672-5.468,1.5a14.149,14.149,0,0,0-1.649.749C84.32,167.63,95.78,169.576,99.379,169.352Z" transform="translate(-87.558 -149.941)"/>
        </g>
        <g id="Group_3366" data-name="Group 3366" transform="translate(94.211 197.143)">
          <path id="Path_2606" data-name="Path 2606" class="cls-17" d="M100.856,162.391l2.618,6.829c-2.318,2.166-3.639,4.78-5.616,7.009,5.336.032,10.4-3.591,15.323-9.135.16-2.206-5.42-2.85-5.66-9.6Z" transform="translate(-92.644 -157.491)"/>
          <path id="Path_2607" data-name="Path 2607" class="cls-13" d="M108.842,174.284c3.146-1.8,1.121-5.244,3.294-6.369,2.25-1.049,4.347-.148,6.069,3.222,1.2,2.25,1.725,2.322,1.8,2.322a1.37,1.37,0,0,0,1.573-.973s-2.322-3.971-1.573-5.768c.6-1.2.224-4.2-.749-5.92a2.449,2.449,0,0,0-1.5-1.2,3.208,3.208,0,0,0-1.2.076c-4.267,1.121-8.314,9.963-14.231,9.811-.076,0-.076,0-.152.076-.825.076-2.1,1.2-3.146,2.474a30.268,30.268,0,0,0-2.174,2.622C94.608,179.451,105.7,176.081,108.842,174.284Z" transform="translate(-96.556 -151.25)"/>
        </g>
        <path id="Path_2608" data-name="Path 2608" class="cls-18" d="M90.691,239.012c6.853.969,13.758,1.977,17.049.332l-1.425-47.6c10.56-19.022,22.649-36.755,18.65-51.887l-17.161-9.1c-7.185,23.886-14.943,45.45-15.644,60.769Z" transform="translate(-19.956 -40.623)"/>
        <path id="Path_2609" data-name="Path 2609" class="cls-19" d="M126.338,236.186c6.393-2.638,10.532-3.963,12.533-7.049l-24.03-45.522c2.314-18.89,5.072-37.576,1.325-49.393l-27.348,4.007c2.586,24.23,7.534,42.736,14.695,56.29Z" transform="translate(-25.581 -30.224)"/>
        <path id="Path_2610" data-name="Path 2610" class="cls-16" d="M99.379,168.334c3.595-.148,3.294-4.119,5.84-4.119,2.474,0,3.971,1.721,3.971,5.544.076,2.7.524,2.846.524,2.846a1.374,1.374,0,0,0,1.873-.148s-.3-4.647,1.2-5.844c.9-.749,1.8-3.222,1.869-5.02a4.533,4.533,0,0,0-1.8-1.125,3.757,3.757,0,0,0-.825-.148,9.874,9.874,0,0,0-3.294-.224,10.69,10.69,0,0,0-2.622.524,16.124,16.124,0,0,0-2.174,1.273c-.372.224-.749.524-1.2.749a15.127,15.127,0,0,1-6.669,2.322,8.371,8.371,0,0,1-5.992-2.322,14.149,14.149,0,0,0-1.649.749C84.32,166.613,95.78,168.558,99.379,168.334Z" transform="translate(-29.365 47.347)"/>
        <path id="Path_2611" data-name="Path 2611" class="cls-16" d="M108.842,173.362c3.146-1.8,1.121-5.244,3.294-6.369,2.25-1.049,4.347-.148,6.069,3.222,1.2,2.25,1.725,2.322,1.8,2.322a1.37,1.37,0,0,0,1.573-.973s-2.322-3.971-1.573-5.768c.6-1.2.224-4.2-.749-5.92-.148,1.2-.224,2.326-.372,3.523a11.189,11.189,0,0,0-6.069.749,11.778,11.778,0,0,0-4.571,3.07l-.224.228c-1.425,1.8-2.7,4.043-5.02,4.5-1.349.224-2.7-.528-3.971-.825a30.268,30.268,0,0,0-2.174,2.622C94.608,178.53,105.7,175.159,108.842,173.362Z" transform="translate(-2.345 46.815)"/>
        <path id="Path_2612" data-name="Path 2612" class="cls-16" d="M131.042,165.27c0,1.021-7.718,1.853-17.241,1.853s-17.245-.833-17.245-1.853,7.722-1.853,17.245-1.853S131.042,164.246,131.042,165.27Z" transform="translate(-2.344 57.448)"/>
        <path id="Path_2613" data-name="Path 2613" class="cls-16" d="M122.689,210.453a.081.081,0,0,1-.08.084,16.12,16.12,0,0,1-3.795-4.043c-5.776-7.674-11.14-15.6-16.256-23.762a66.6,66.6,0,0,1-3.875-6.685,75,75,0,0,1-4.375-14.023c-.825-3.054,3.3-6.273,3.627-9.407.248-3.383,3.222-12.185,3.222-12.185s-.248,6.657-2.474,24.562Z" transform="translate(-9.422 -11.572)"/>
        <path id="Path_2614" data-name="Path 2614" class="cls-20" d="M134.96,187.5c-5.492,7.8-47,11.288-45.522,6.06,9.127-23.594.568-33.441-1.137-45.938a28.776,28.776,0,0,1-.152-6.02A35.592,35.592,0,0,1,92.7,127.289l.036-.04c4.431-3.823,20.411-11.929,26.736-9.619,12.725,5.72,12.838,36.583,15,63.776C134.62,183.486,134.768,185.5,134.96,187.5Z" transform="translate(-27.874 -81.274)"/>
        <g id="Group_3367" data-name="Group 3367" transform="translate(62.208 8.067)">
          <path id="Path_2615" data-name="Path 2615" class="cls-21" d="M100.459,124.742c-1.4-2.646-.793-5.144-1.157-9.1H91.6c1.917,6.3.48,9.559-.7,12.217C94.214,129.465,97.729,125.7,100.459,124.742Z" transform="translate(-81.561 -94.095)"/>
          <path id="Path_2616" data-name="Path 2616" class="cls-17" d="M104.873,132.664c-5.012.412-11.421,3.018-14.427.244-2.274-6.521.5-18.254,2.878-21.84l15.2,2.982Z" transform="translate(-85.442 -107.822)"/>
          <path id="Path_2617" data-name="Path 2617" class="cls-1" d="M97.26,126.117c-11.861-2.126-8.871-12.033-6.645-14.251,4.063-4.055,9.095,1.065,12.826-.817,5.068-2.55,11.953,3.118,13.446,8.831,1.321,5.048.108,7.113-1.5,10.944s2.37,7.994,10.428,13.586c14.863,10.312-4.455,43.14-27.921,13.206-9.483-12.1-2.354-20.163,1.565-24.082C101.635,131.357,101.687,126.909,97.26,126.117Z" transform="translate(-88.561 -110.257)"/>
        </g>
        <path id="Path_2618" data-name="Path 2618" class="cls-20" d="M132.512,147.98c-1.441.076-2.878.152-4.355.228-1.705.112-3.411.152-5.152.188-5.34.076-10.756-.376-15.752-2.346-5.116-2.386-11.781-7.878-18.974-13.974-3.827-3.182-7.8-6.589-11.781-9.771l3.411-5.34,31.624,17.5,15.868-6.4.036-.04.873-.34,2.5,12.157h.04Z" transform="translate(-62.578 -82.046)"/>
        <path id="Path_2619" data-name="Path 2619" class="cls-16" d="M160.826,176.938c-5.492,7.8-47,11.288-45.522,6.06,9.127-23.594.568-33.441-1.137-45.938-5.34.076-10.756-.376-15.752-2.346-5.116-2.386-11.781-7.878-18.974-13.974,1.853.869,3.863,2.158,4.583,2.5,6.056,2.954,12.193,5.908,18.782,7.309a31.866,31.866,0,0,0,11.208.492,21.724,21.724,0,0,0,7.954-2.538h.04c-2.614,1.589-3.334,5.188-2.69,8.37a7.559,7.559,0,0,0,.34,1.325c1.213,3.523,3.675,6.513,5.036,9.959,2.654,6.781.909,14.315-.228,21.472a3.116,3.116,0,0,0,2.2,4.207,36.85,36.85,0,0,0,33.669-2.994C160.485,172.923,160.634,174.932,160.826,176.938Z" transform="translate(-53.74 -70.71)"/>
      </g>
      <g id="Group_3376" data-name="Group 3376" transform="translate(35.15 239.008)">
        <g id="Group_3370" data-name="Group 3370" transform="translate(13.829 81.643)">
          <g id="Group_3369" data-name="Group 3369" transform="translate(32.405 94.923)">
            <path id="Path_2620" data-name="Path 2620" class="cls-17" d="M69.388,148.52a20.276,20.276,0,0,0-.669,9.247l-9.847-.372c.512-4.72,3.05-7.518,3.234-10.864Z" transform="translate(-56.563 -146.531)"/>
            <path id="Path_2621" data-name="Path 2621" class="cls-1" d="M61.161,148.392c-2.218,1.861-3.951,6.317-2.054,7.6s18.606,5.12,22.129,3.282c2.142-1.121-8.418-9.547-11.276-9.267C64.391,150.55,60.769,149.177,61.161,148.392Z" transform="translate(-58.295 -140.942)"/>
          </g>
          <path id="Path_2622" data-name="Path 2622" class="cls-1" d="M97.8,219.95c-7.089,1.585-9.759,1.637-13.338.192l-1.025-60.289c-15.984-5.368-36.079-14.079-32.909-31.427l16.616-5.608c16.688,11.068,38.072,14.727,37.82,33.581Z" transform="translate(-50.2 -122.818)"/>
        </g>
        <g id="Group_3372" data-name="Group 3372" transform="translate(0 69.934)">
          <g id="Group_3371" data-name="Group 3371" transform="translate(0 96.408)">
            <path id="Path_2623" data-name="Path 2623" class="cls-17" d="M60.435,148.328a20.294,20.294,0,0,0-3.771,8.462L47.533,153.1c2.082-4.263,5.42-6.029,6.733-9.119Z" transform="translate(-44.378 -143.977)"/>
            <path id="Path_2624" data-name="Path 2624" class="cls-1" d="M51.581,145.5c-2.718,1-5.864,4.6-4.511,6.453s15.756,11.14,19.695,10.608c2.394-.324-4.675-11.837-7.458-12.549C53.882,148.626,50.944,146.1,51.581,145.5Z" transform="translate(-46.745 -139.403)"/>
          </g>
          <path id="Path_2625" data-name="Path 2625" class="cls-1" d="M64.6,221.661c-7.2-.917-9.731-1.773-12.609-4.351l19.527-57.047c-10.9,2.542-21.12-1.273-24.646-22.04l21.908-18.33c11.933,16.08,30.8,26.788,24.158,44.433Z" transform="translate(-46.381 -119.893)"/>
        </g>
        <g id="Group_3373" data-name="Group 3373" transform="translate(36.389 34.6)">
          <path id="Path_2626" data-name="Path 2626" class="cls-17" d="M95.739,160.225l-3.054,3.919-.24.32c-1.253-.817-2.514-1.7-3.839-2.5-8.538-5.592-17.865-11.7-24.37-16.949a50.516,50.516,0,0,1-5.06-4.6,12.518,12.518,0,0,1-3.3-4.708c-.16-.616.184-2.158,1.041-4.127a81.034,81.034,0,0,1,4.563-9.247c2.43-4.323,9.087-9.443,9.095-9.375,5.132,2.1,7.586,1.665,6.945,8.074-2.026,3.2-2.758,6.281-4.824,8.707l-.06.08c-.488.568-.973,1.133-1.4,1.621-.06.08-.12.16-.188.168a30.149,30.149,0,0,1-2.5,2.35l9.059,8.706,13.934,13.478Z" transform="translate(-55.835 -105.376)"/>
          <path id="Path_2627" data-name="Path 2627" class="cls-22" d="M68.5,135.516s-10.348-5.48-11.224-7.6c-1.041-2.522,10.744-15.628,13.574-16.849a10.461,10.461,0,0,1,4.647,9.559C75.107,127.274,68.5,135.516,68.5,135.516Z" transform="translate(-51.699 -111.066)"/>
        </g>
        <path id="Path_2628" data-name="Path 2628" class="cls-22" d="M92.776,171.791c-1.293,6.057-38.393,7.454-45.91-2.714,5.676-26.312,12.918-43.2,24.7-57.719,10.94-2.95,19.282-2.49,30.355,4.055C100.926,146.408,88.157,140.143,92.776,171.791Z" transform="translate(-46.381 -80.813)"/>
        <path id="Path_2629" data-name="Path 2629" class="cls-16" d="M46.862,167.7c6.533,8.923,31.556,9.6,39.213,6.257-1.261-1.089-13.25-2.158-18.454-4.9-5.256-2.834-5.52-14.419-5.092-16.116,2.542-11.449,13.946-24.9,14.243-26.155a52.322,52.322,0,0,0-.116-6.993c-.34-3.114-1.953-7.8-4.916-9.551-.076-.024-.124-.116-.272-.16C59.772,124.588,52.562,141.428,46.862,167.7Z" transform="translate(-46.393 -79.412)"/>
        <g id="Group_3374" data-name="Group 3374" transform="translate(33.237)">
          <path id="Path_2630" data-name="Path 2630" class="cls-17" d="M67.717,119.9l2.566-9.531L62.7,107.786l-7.654,7.446C56.989,118.166,62.938,122.313,67.717,119.9Z" transform="translate(-55.048 -86.316)"/>
          <path id="Path_2631" data-name="Path 2631" class="cls-16" d="M55.054,115.251a7.338,7.338,0,0,0,1.581,1.8c.436-.276,1-.793,1.673-1.345,1.557-1.3,3.779-1.173,5.764-.564,1.465.44,2.97,1.2,4.479,1.569l1.7-6.3-7.534-2.622Z" transform="translate(-55.03 -86.331)"/>
          <path id="Path_2632" data-name="Path 2632" class="cls-17" d="M61.311,103.274l-5.1,18.962.116-.468c3.915,3.278,4.619,8.306,11.625,9.087,4.3-2.2,6.941-6.04,9.223-9.963,1.321-2.414,2.606-4.952,4.007-7.129l-8.763-10.608Z" transform="translate(-51.568 -100.226)"/>
          <path id="Path_2633" data-name="Path 2633" class="cls-16" d="M61.015,103.859l-4.808,18.378c1.273-.352,1.653.624,2.454-.56a6.832,6.832,0,0,1,1.077-1.545,5.082,5.082,0,0,1,1.157-.709c2.23-1.061,4.5-2.2,6.921-2.27,3.459-.14,6.745,1.621,9.355,3.739,1.321-2.414,2.606-4.952,4.007-7.129l-8.763-10.608Z" transform="translate(-51.568 -100.226)"/>
          <path id="Path_2634" data-name="Path 2634" class="cls-23" d="M81.3,119.677c-3.963,1.045-9.719-2.134-9.719-2.134l-1.661,7.289-1.477-.272s.929-7.253-1.705-6.665-2.57,4.167-2.378,6.029c.272,2.634-3.355,4.868-3.355,4.868A12.726,12.726,0,0,1,55.5,116.855c1.021-11.352,12.125-20.8,28.013-8.995C91.7,113.949,82.1,119.465,81.3,119.677Z" transform="translate(-53.88 -102.423)"/>
        </g>
        <path id="Path_2635" data-name="Path 2635" class="cls-24" d="M79.157,124.8l-24.51,10.58a2.229,2.229,0,0,0-.128,4.031l19.27,9.807a2.235,2.235,0,0,0,2.086-.036l23.169-12.754a2.225,2.225,0,0,0-.2-4L80.91,124.8A2.24,2.24,0,0,0,79.157,124.8Z" transform="translate(-27.054 -35.755)"/>
        <path id="Path_2636" data-name="Path 2636" class="cls-12" d="M58.906,159.853l6.625-24.81a3.648,3.648,0,0,1,2.062-2.406l27.821-12.2a1.313,1.313,0,0,1,1.777,1.605l-7.582,23.638a3.654,3.654,0,0,1-1.845,2.154l-27,13.534A1.314,1.314,0,0,1,58.906,159.853Z" transform="translate(-10.366 -48.673)"/>
        <g id="Group_3375" data-name="Group 3375" transform="translate(4.011 30.545)">
          <path id="Path_2637" data-name="Path 2637" class="cls-17" d="M87.653,160.225l-3.058,3.919-.236.32c-1.253-.817-2.518-1.7-3.839-2.5-8.542-5.592-17.865-11.7-24.37-16.949a51.049,51.049,0,0,1-5.064-4.6,12.565,12.565,0,0,1-3.3-4.708c-.156-.616.188-2.158,1.041-4.127a81.814,81.814,0,0,1,4.567-9.247c2.43-4.323,9.083-9.443,9.095-9.375,5.128,2.1,7.586,1.665,6.945,8.074-2.026,3.2-2.762,6.281-4.828,8.707l-.06.08c-.484.568-.973,1.133-1.4,1.621-.06.08-.12.16-.188.168a30.17,30.17,0,0,1-2.506,2.35l9.063,8.706,13.93,13.478Z" transform="translate(-47.747 -101.321)"/>
          <path id="Path_2638" data-name="Path 2638" class="cls-17" d="M65.531,129.886c.4,1.269,1.9,3.667.873,5.384-2.366-.38-3.5-4.115-9.511-6.141l3.294-4.239a3.748,3.748,0,0,1,2.822.3C63.87,125.383,65.227,128.926,65.531,129.886Z" transform="translate(-20.281 -65.987)"/>
          <path id="Path_2639" data-name="Path 2639" class="cls-22" d="M60.407,138.558s-10.352-5.48-11.224-7.6c-1.041-2.522,12.766-19.687,15.6-20.9,0,0,5.564,4.419,5.172,11.064S60.407,138.558,60.407,138.558Z" transform="translate(-43.602 -110.053)"/>
        </g>
        <path id="Path_2640" data-name="Path 2640" class="cls-25" d="M69.533,126.641a5.682,5.682,0,0,1-3.671,4.255c-1.825.6-3.142-.332-2.942-2.082a5.676,5.676,0,0,1,3.667-4.259C68.412,123.955,69.733,124.888,69.533,126.641Z" transform="translate(1.768 -36.504)"/>
      </g>
    </g>
  </g>
</svg>
