<svg xmlns="http://www.w3.org/2000/svg" xmlns:xlink="http://www.w3.org/1999/xlink" width="1488.944" height="1298.694" viewBox="0 0 1488.944 1298.694">
  <defs>
    <style>
      .cls-1 {
        fill: url(#linear-gradient);
      }

      .cls-2 {
        mix-blend-mode: soft-light;
        isolation: isolate;
        fill: url(#linear-gradient-2);
      }
    </style>
    <linearGradient id="linear-gradient" y1="0.5" x2="1" y2="0.5" gradientUnits="objectBoundingBox">
      <stop offset="0" stop-color="#c47acc"/>
      <stop offset="0.165" stop-color="#98509e"/>
      <stop offset="0.303" stop-color="#7b4692"/>
      <stop offset="0.499" stop-color="#593a84"/>
      <stop offset="0.685" stop-color="#41327a"/>
      <stop offset="0.857" stop-color="#332d75"/>
      <stop offset="1" stop-color="#2e2c73"/>
    </linearGradient>
    <linearGradient id="linear-gradient-2" x1="0.464" y1="0.036" x2="0.649" y2="1.095" gradientUnits="objectBoundingBox">
      <stop offset="0" stop-color="#fff"/>
      <stop offset="0.034" stop-color="#e3e3e3"/>
      <stop offset="0.098" stop-color="#b4b4b4"/>
      <stop offset="0.168" stop-color="#898989"/>
      <stop offset="0.242" stop-color="#646464"/>
      <stop offset="0.322" stop-color="#444"/>
      <stop offset="0.408" stop-color="#2b2b2b"/>
      <stop offset="0.503" stop-color="#181818"/>
      <stop offset="0.613" stop-color="#0a0a0a"/>
      <stop offset="0.75" stop-color="#020202"/>
      <stop offset="1"/>
    </linearGradient>
  </defs>
  <g id="Time_Hunter_ENG_BLOB" data-name="Time Hunter ENG BLOB" transform="translate(0 0.467)">
    <path id="Path_2551" data-name="Path 2551" class="cls-1" d="M1505.477,312.581v2.482c0,4.531-.15,8.911-.292,13.442-.15,2.049-.292,4.239-.442,6.288v.291c-.292,4.23-.583,8.62-1.166,12.85-.583,5.405-1.316,10.81-2.34,16.215v.15c-.875,5.405-2.04,10.669-3.215,16.074-1.016,4.231-2.19,8.47-3.356,12.709q-2.636,9.644-6.138,18.847c-1.9,5.114-3.939,10.219-6.138,15.191-2.19,5.114-4.522,10.077-7.154,15.05-2.482,4.964-5.114,9.786-8.037,14.458-2.19,3.8-4.531,7.313-7.013,10.96-1.166,1.758-2.34,3.656-3.656,5.405-.141.15-.291.442-.433.583-2.632,3.656-5.264,7.163-8.037,10.669-3.506,4.381-7.012,8.47-10.66,12.559-4.389,4.822-8.92,9.353-13.592,13.734-3.648,3.656-7.6,7.013-11.685,10.378-.291.433-.733.583-1.024.874-4.381,3.656-8.761,7.163-13.442,10.378l-.141.141c-4.531,3.215-9.062,6.279-13.884,9.353a11.74,11.74,0,0,0-1.166.724,261.547,261.547,0,0,1-27.617,14.908c-3.8,1.9-7.6,3.648-11.534,5.255-.883.442-1.757.733-2.491,1.025-4.672,2.049-9.344,3.8-14.167,5.555-205.263,73.341-89.847,243.391-95.4,421.045,0,4.672-.291,9.2-.583,13.875a16.717,16.717,0,0,1-.291,2.782,315.064,315.064,0,0,1-6.28,44.707,1.267,1.267,0,0,0-.15.724.534.534,0,0,0-.15.442c-1.166,5.114-2.482,10.369-4.089,15.633A97.757,97.757,0,0,1,1216.5,1079c-1.607,5.405-3.648,10.96-5.7,16.365h-.141a255.721,255.721,0,0,1-14.908,31.557c-1.9,3.656-4.089,7.454-6.421,11.1-1.9,3.215-3.807,6.288-5.847,9.353a229.538,229.538,0,0,1-15.341,20.746,179.2,179.2,0,0,1-14.9,16.948,64.534,64.534,0,0,1-5.405,5.546,123.744,123.744,0,0,1-9.936,9.645,10.9,10.9,0,0,1-1.9,1.758c-250.7,226.884-923.619,117.747-855.1-7.6,30.974-56.683,45.14-92.329,45.14-119.938a67.908,67.908,0,0,0-.433-7.9v-.141a68.688,68.688,0,0,0-1.316-7.454c0-.291-.15-.583-.15-.874a55.744,55.744,0,0,0-1.9-6.571,70.536,70.536,0,0,0-6.571-13.884,61.635,61.635,0,0,0-4.531-6.863c-1.466-2.049-3.215-4.239-4.822-6.43a246.53,246.53,0,0,0-20.455-21.188c-2.632-2.332-5.255-4.822-8.037-7.3-14.166-12.709-30.974-26.734-50.4-44.125h-.141q-8.982-8.108-18.847-17.09c-3.215-2.923-6.571-6.138-9.936-9.2-16.8-16.074-35.063-34.188-54.634-55.518C32.1,748.384,1.122,607.259,23.185,489.361,59.272,294.025,248.956,107.93,448.956,232.4,681.395,376.89,1010.5-7.957,1279.759,39.091,1424.682,64.368,1504.311,188.4,1505.477,312.581Z" transform="translate(-16.533 -35.542)"/>
    <path id="Path_2552" data-name="Path 2552" class="cls-2" d="M1505.477,183.286v2.482c0,4.531-.15,8.911-.292,13.442-.15,2.049-.292,4.239-.442,6.288v.291c-.292,4.23-.583,8.62-1.166,12.85-.583,5.405-1.316,10.81-2.34,16.215v.15c-.875,5.405-2.04,10.669-3.215,16.074-1.016,4.231-2.19,8.47-3.356,12.709q-2.636,9.644-6.138,18.847c-1.9,5.114-3.939,10.219-6.138,15.191-2.19,5.114-4.522,10.077-7.154,15.05-2.482,4.964-5.114,9.786-8.037,14.458-2.19,3.8-4.531,7.313-7.013,10.96-1.166,1.758-2.34,3.656-3.656,5.405-.141.15-.291.442-.433.583-2.632,3.656-5.264,7.163-8.037,10.669-3.506,4.381-7.012,8.47-10.66,12.559-4.389,4.822-8.92,9.353-13.592,13.734-3.648,3.656-7.6,7.013-11.685,10.378-.291.433-.733.583-1.024.874-4.381,3.656-8.761,7.163-13.442,10.378l-.141.141c-4.531,3.215-9.062,6.279-13.884,9.353a11.746,11.746,0,0,0-1.166.724A261.547,261.547,0,0,1,1354.848,428c-3.8,1.9-7.6,3.648-11.534,5.255-.883.442-1.757.733-2.491,1.025-4.672,2.049-9.344,3.8-14.167,5.555-205.263,73.341-89.847,243.391-95.4,421.045,0,4.672-.291,9.2-.583,13.875a16.715,16.715,0,0,1-.291,2.782,315.064,315.064,0,0,1-6.28,44.707,1.267,1.267,0,0,0-.15.724.534.534,0,0,0-.15.442c-1.166,5.114-2.482,10.369-4.089,15.633a97.752,97.752,0,0,1-3.215,10.66c-1.607,5.405-3.648,10.96-5.7,16.366h-.141a255.725,255.725,0,0,1-14.908,31.557c-1.9,3.656-4.089,7.454-6.421,11.1-1.9,3.215-3.807,6.288-5.847,9.353a229.563,229.563,0,0,1-15.341,20.746,179.2,179.2,0,0,1-14.9,16.948,64.534,64.534,0,0,1-5.405,5.546,123.765,123.765,0,0,1-9.936,9.645,10.9,10.9,0,0,1-1.9,1.758c-250.7,226.884-923.619,117.747-855.1-7.6,30.974-56.683,45.14-92.329,45.14-119.938a71.675,71.675,0,0,0-.433-7.9v-.141a68.688,68.688,0,0,0-1.316-7.454c0-.291-.15-.583-.15-.874a55.741,55.741,0,0,0-1.9-6.571,66.951,66.951,0,0,0-6.571-13.884,61.623,61.623,0,0,0-4.531-6.862c-1.466-2.049-3.065-4.239-4.822-6.43a246.512,246.512,0,0,0-20.455-21.188c-2.482-2.482-5.255-4.963-8.037-7.3-14.166-12.709-30.974-26.734-50.4-44.124h-.141q-8.982-8.108-18.847-17.09c-3.215-3.065-6.571-6.138-9.936-9.2-16.8-16.074-35.063-34.188-54.634-55.518C32.1,619.09,1.122,477.964,23.185,360.067a742.581,742.581,0,0,1,87.657,20.888c98.759,29.516,193,73.923,293.512,97.151,48.938,11.252,100.508,16.949,150.479,13.442C607.859,487.75,659,473.725,703.7,445.242c61.506-39.452,103.581-101.391,144.341-164.5,53.91-84.009,105.047-170.059,194.453-207.6,53.469-22.5,113.517-23.378,171.375-19,59.9,4.681,120.379,15.05,173.848,42.367C1417.97,111.845,1467.349,144.576,1505.477,183.286Z" transform="translate(-16.533 93.752)"/>
  </g>
</svg>
